<svg width="22" height="22" viewBox="0 0 22 22" fill="none" xmlns="http://www.w3.org/2000/svg">
<path d="M10.9999 2.20001V7.15001C10.9999 7.58762 11.1737 8.0073 11.4832 8.31674C11.7926 8.62617 12.2123 8.80001 12.6499 8.80001H17.5999V18.15C17.5999 18.5876 17.4261 19.0073 17.1166 19.3167C16.8072 19.6262 16.3875 19.8 15.9499 19.8H6.0499C5.6123 19.8 5.19261 19.6262 4.88318 19.3167C4.57374 19.0073 4.3999 18.5876 4.3999 18.15V3.85001C4.3999 3.4124 4.57374 2.99272 4.88318 2.68329C5.19261 2.37385 5.6123 2.20001 6.0499 2.20001H10.9999ZM12.0999 2.47501V7.15001C12.0999 7.29588 12.1578 7.43578 12.261 7.53892C12.3641 7.64207 12.504 7.70001 12.6499 7.70001H17.3249L12.0999 2.47501Z" fill="#9F9F9F"/>
</svg>
