<svg xmlns="http://www.w3.org/2000/svg" xmlns:xlink="http://www.w3.org/1999/xlink" width="1024" height="1024" viewBox="0 0 1024 1024"><defs><style>.a{fill:url(#a);}.b{opacity:0.27;isolation:isolate;}.c,.d{fill:#fff;}.d{fill-rule:evenodd;}</style><linearGradient id="a" x1="0.2" y1="0.216" x2="1" y2="1" gradientUnits="objectBoundingBox"><stop offset="0" stop-color="#10caf7"/><stop offset="1" stop-color="#00b5e0"/></linearGradient></defs><g transform="translate(0)"><g transform="translate(0)"><rect class="a" width="1024" height="1024" rx="150"/></g><g transform="translate(-23.207 -21.406)"><g transform="translate(35.207 33.406)"><g class="b" transform="translate(0 0)"><circle class="c" cx="353.553" cy="353.553" r="353.553" transform="translate(0 500) rotate(-45)"/></g></g><g transform="translate(414.543 346.048)"><g transform="translate(0 0)"><path class="d" d="M227.3,287.8V391.346H0V228.531H24.047V367.259H203.253V271.365Z" transform="translate(0 -112.464)"/><path class="d" d="M0,139.891H95.833v24.087H24.047v31.365H0V139.891Z" transform="translate(0 -84.424)"/><path class="d" d="M103.71,317.775q16.434-43.782.888-93.084,37.255-24.682,42.368-60.316c39.013,8.167,65.625,26.361,87.422,59.762q-31.272,17.768-40.651,61.522-51.5,3.442-86.2,34.708l52.357-76.83a8.379,8.379,0,1,0-3.81-2.611Z" transform="translate(-27.818 -92.883)"/><path class="d" d="M259.052,82.953,145.9,62.168l30.208,47.245L162.074,130.02c36.92,8.146,67.521,29.07,88.567,60.553l13.07-19.2q-6.546-13.851-21.322-28.24,20.88,11.182,28.41,28.063l27.64,5.516L284.4,197.3l-4.877-3.343-2.843,4.173,4.876,3.342-8.212,12.063-6.318,4.45-11,7.771,7.779,5.319,7.8,5.321,3.2-13.092,1.856-7.494,8.213-12.084,4.9,3.343,2.842-4.173-4.9-3.342,14.827-21.733-.612-.416,17.67,3.521Z" transform="translate(-39.135 -62.168)"/></g><g transform="translate(0 304.862)"><path class="c" d="M447.025,215.612v3.365l-1.683.228q-6.051.73-7.254,1.819t-1.205,4.23v1.637l-.091,15.235.046,17.419.045,8.869a18.092,18.092,0,0,0,.387,4.912,2.765,2.765,0,0,0,1.342,1.5,25.73,25.73,0,0,0,6.731,1.683c.364.064.923.154,1.683.273v3.365q-9.325-.5-16.418-.5-6.733,0-17.828.5v-3.365q7.061-1.317,7.741-1.592a3.372,3.372,0,0,0,1.587-1.182q.675-1.044.723-4.275.089-7.545.091-25.7l-.136-16.554v-1.365q0-3.636-1.046-4.684t-7.049-2.047q-.682-.137-1.955-.409v-3.365q11.707.5,17.532.5Q436.508,216.112,447.025,215.612Z" transform="translate(-412.734 -214.248)"/><path class="c" d="M536.925,218.977v-3.365q6.242.5,11.62.5,5.424,0,12.757-.5,5.54,7.463,33.336,41.249l-.182-24.741q-.225-9.046-.7-10.074a3.407,3.407,0,0,0-1.568-1.592q-1.092-.566-7.686-1.478v-3.365q7.32.5,12.779.5,5.274,0,13.462-.5v3.365c-.941.182-1.637.305-2.092.364q-5.369.819-6.413,1.8T601,225.163q-.457,6.371-.455,26.2,0,12.737.5,29.107-2.136.641-4.23,1.5L579.585,260.2,553.3,228.182l.182,21.634.363,21.043a9.426,9.426,0,0,0,.455,2.983,2.456,2.456,0,0,0,.909.982q1,.594,6.458,1.592c.423.064,1.06.182,1.91.364v3.365q-7.838-.5-12.575-.5-4.052,0-13.757.5v-3.365c.941-.182,1.651-.318,2.138-.409q5.232-.819,6.231-1.592a2.73,2.73,0,0,0,.909-1.433q.273-.928.591-13.53.5-18.235.5-31.29a19.708,19.708,0,0,0-.478-5.594,3.663,3.663,0,0,0-1.705-1.91,26.818,26.818,0,0,0-6.23-1.592C538.685,219.341,537.925,219.191,536.925,218.977Z" transform="translate(-494.275 -214.248)"/><path class="c" d="M771.707,218.977v-3.365q15.1.5,22.239.5,18.829,0,32.882-.5.272,10.1,1.228,17.919h-3.729l-.455-1.41a35.866,35.866,0,0,0-3.5-8.55,3.84,3.84,0,0,0-1.955-1.387,18.931,18.931,0,0,0-5.048-.432H795.947v21.966h7.914a21.07,21.07,0,0,0,5.753-.455,3.653,3.653,0,0,0,1.842-1.592q1.044-1.774,2.32-7.458h3.775Q817,241.13,817,247.356q0,5.689.546,11.324h-3.775a63.939,63.939,0,0,0-2.092-8,2.89,2.89,0,0,0-1.455-1.365q-1.228-.5-6.094-.5h-8.186v20.375a14.215,14.215,0,0,0,.432,4.593,2.6,2.6,0,0,0,1.478,1.319,32.957,32.957,0,0,0,7.368,1.41c.486.032,1.2.123,2.137.273v3.365q-11.236-.5-18.874-.5t-16.782.5v-3.365q7.824-1.365,8.845-2.183a4.145,4.145,0,0,0,1.205-3q.108-1.637.182-24.877V230.711a49.128,49.128,0,0,0-.341-8,2.8,2.8,0,0,0-1.16-1.728q-1.043-.634-6.913-1.683C773.13,219.237,772.525,219.132,771.707,218.977Z" transform="translate(-648.427 -214.248)"/><path class="c" d="M993.8,231.468h-4.548q-1.5-8.7-4.548-11.675a11.359,11.359,0,0,0-8.277-2.97,10.315,10.315,0,0,0-7.3,2.433,8.1,8.1,0,0,0-2.615,6.2,8.977,8.977,0,0,0,2.411,6.09q2.409,2.77,11.461,6.863t12.643,8.632a17.87,17.87,0,0,1,3.594,11.365,19.648,19.648,0,0,1-6.163,14.335q-6.159,6.161-19.9,6.158a56.271,56.271,0,0,1-9.278-.728,53.057,53.057,0,0,1-8.231-2.092q.771-8,.773-15.781v-3.047h4.457q1.725,9.053,4.275,12.1a11.578,11.578,0,0,0,9.459,4.139,10.543,10.543,0,0,0,7.731-2.865,9.821,9.821,0,0,0,2.911-7.322,10.17,10.17,0,0,0-1.2-5,12.561,12.561,0,0,0-3.593-3.957,55.056,55.056,0,0,0-8.663-4.684q-9.64-4.543-12.916-8.778A15.53,15.53,0,0,1,953,231.013a17.774,17.774,0,0,1,6.185-13.871q6.187-5.5,17.828-5.5A54.364,54.364,0,0,1,993.8,214.6q-.273,7.142-.273,9.914Q993.523,227.743,993.8,231.468Z" transform="translate(-767.46 -211.639)"/></g></g></g></g></svg>