<svg width="208" height="168" viewBox="0 0 208 168" fill="none" xmlns="http://www.w3.org/2000/svg">
<path d="M112.727 163.623L114.002 164.903C114.688 164.215 115.599 163.835 116.571 163.835C117.543 163.835 118.453 164.215 119.139 164.903L120.415 163.623C119.386 162.591 118.022 162.026 116.571 162.026C115.119 162.026 113.751 162.591 112.727 163.623Z" fill="#00B5E0"/>
<path d="M110.605 161.497L111.881 162.776C113.135 161.519 114.797 160.831 116.57 160.831C118.342 160.831 120.005 161.523 121.258 162.776L122.534 161.497C120.942 159.9 118.822 159.018 116.57 159.018C114.318 159.018 112.198 159.9 110.605 161.497Z" fill="#00B5E0"/>
<path d="M116.567 156.013C113.514 156.013 110.642 157.204 108.482 159.37L109.758 160.649C111.574 158.827 113.994 157.821 116.567 157.821C119.14 157.821 121.554 158.827 123.375 160.649L124.651 159.37C122.496 157.204 119.624 156.013 116.567 156.013Z" fill="#00B5E0"/>
<path d="M116.569 164.903C115.716 164.903 115.025 165.596 115.025 166.452C115.025 167.308 115.716 168 116.569 168C117.423 168 118.113 167.308 118.113 166.452C118.113 165.596 117.423 164.903 116.569 164.903Z" fill="#00B5E0"/>
<path d="M121.539 72.8223L122.5 73.7857C123.016 73.2675 123.702 72.9817 124.434 72.9817C125.166 72.9817 125.852 73.2675 126.368 73.7857L127.329 72.8223C126.554 72.0449 125.527 71.6196 124.434 71.6196C123.341 71.6163 122.314 72.0449 121.539 72.8223Z" stroke="#00B5E0" stroke-width="0.490874" stroke-miterlimit="10"/>
<path d="M119.945 71.2216L120.906 72.185C121.85 71.2382 123.102 70.7199 124.437 70.7199C125.771 70.7199 127.023 71.2415 127.967 72.185L128.928 71.2216C127.729 70.0189 126.132 69.3545 124.437 69.3545C122.737 69.3545 121.144 70.0189 119.945 71.2216Z" stroke="#00B5E0" stroke-width="0.490874" stroke-miterlimit="10"/>
<path d="M124.439 67.0923C122.141 67.0923 119.978 67.9893 118.352 69.6205L119.312 70.5839C120.68 69.2118 122.502 68.4544 124.439 68.4544C126.377 68.4544 128.195 69.2118 129.567 70.5839L130.527 69.6205C128.901 67.9893 126.738 67.0923 124.439 67.0923Z" stroke="#00B5E0" stroke-width="0.490874" stroke-miterlimit="10"/>
<path d="M124.44 76.1183C125.082 76.1183 125.603 75.5962 125.603 74.9522C125.603 74.3082 125.082 73.7861 124.44 73.7861C123.798 73.7861 123.277 74.3082 123.277 74.9522C123.277 75.5962 123.798 76.1183 124.44 76.1183Z" stroke="#00B5E0" stroke-width="0.490874" stroke-miterlimit="10"/>
<path d="M168.932 97.2939V101.264" stroke="#00B5E0" stroke-width="0.488891" stroke-miterlimit="10" stroke-linecap="round" stroke-linejoin="round"/>
<path d="M166.957 99.2798H170.911" stroke="#00B5E0" stroke-width="0.488891" stroke-miterlimit="10" stroke-linecap="round" stroke-linejoin="round"/>
<path d="M26.418 135.464V139.434" stroke="#DB7294" stroke-width="0.488891" stroke-miterlimit="10" stroke-linecap="round" stroke-linejoin="round"/>
<path d="M24.4395 137.45H28.3936" stroke="#DB7294" stroke-width="0.488891" stroke-miterlimit="10" stroke-linecap="round" stroke-linejoin="round"/>
<path d="M59.8926 161.479V165.45" stroke="#DB7294" stroke-width="0.488891" stroke-miterlimit="10" stroke-linecap="round" stroke-linejoin="round"/>
<path d="M57.9141 163.465H61.8726" stroke="#DB7294" stroke-width="0.488891" stroke-miterlimit="10" stroke-linecap="round" stroke-linejoin="round"/>
<path d="M111.471 41.7065V45.6726" stroke="#DB7294" stroke-width="0.488891" stroke-miterlimit="10" stroke-linecap="round" stroke-linejoin="round"/>
<path d="M109.496 43.6924H113.45" stroke="#DB7294" stroke-width="0.488891" stroke-miterlimit="10" stroke-linecap="round" stroke-linejoin="round"/>
<path d="M30.1191 26.2925V30.2586" stroke="#00B5E0" stroke-width="0.488891" stroke-miterlimit="10" stroke-linecap="round" stroke-linejoin="round"/>
<path d="M28.1406 28.2734H32.0948" stroke="#00B5E0" stroke-width="0.488891" stroke-miterlimit="10" stroke-linecap="round" stroke-linejoin="round"/>
<path d="M50.4824 93.8955V97.8661" stroke="#EEDA36" stroke-width="0.488891" stroke-miterlimit="10" stroke-linecap="round" stroke-linejoin="round"/>
<path d="M48.5039 95.8813H52.4625" stroke="#EEDA36" stroke-width="0.488891" stroke-miterlimit="10" stroke-linecap="round" stroke-linejoin="round"/>
<path d="M130.098 144.534V148.5" stroke="#EEDA36" stroke-width="0.488891" stroke-miterlimit="10" stroke-linecap="round" stroke-linejoin="round"/>
<path d="M128.119 146.515H132.073" stroke="#EEDA36" stroke-width="0.488891" stroke-miterlimit="10" stroke-linecap="round" stroke-linejoin="round"/>
<path d="M93.5466 44.3573C94.2972 44.3573 94.9057 43.747 94.9057 42.9941C94.9057 42.2412 94.2972 41.6309 93.5466 41.6309C92.796 41.6309 92.1875 42.2412 92.1875 42.9941C92.1875 43.747 92.796 44.3573 93.5466 44.3573Z" stroke="#EEDA36" stroke-width="0.488891" stroke-miterlimit="10" stroke-linecap="round" stroke-linejoin="round"/>
<path d="M31.3725 158.549C32.5305 154.713 30.3689 150.661 26.5443 149.5C22.7198 148.338 18.6806 150.507 17.5226 154.343C16.3646 158.179 18.5262 162.23 22.3507 163.392C26.1753 164.553 30.2145 162.385 31.3725 158.549Z" fill="#E4B0C8"/>
<path d="M28.799 153.378H20.3145V159.771H28.799V153.378Z" stroke="white" stroke-width="0.651854" stroke-miterlimit="10"/>
<path d="M20.3145 153.378L24.5545 157.309L28.799 153.378" stroke="white" stroke-width="0.651854" stroke-miterlimit="10"/>
<path d="M104.485 35.9666C107.026 35.9666 109.086 33.9005 109.086 31.3519C109.086 28.8034 107.026 26.7373 104.485 26.7373C101.945 26.7373 99.8848 28.8034 99.8848 31.3519C99.8848 33.9005 101.945 35.9666 104.485 35.9666Z" fill="#E4B0C8"/>
<path d="M107.246 29.4019H101.854V33.465H107.246V29.4019Z" stroke="white" stroke-width="0.651854" stroke-miterlimit="10"/>
<path d="M101.854 29.4019L104.55 31.9033L107.246 29.4019" stroke="white" stroke-width="0.651854" stroke-miterlimit="10"/>
<path d="M59.8933 79.6201L61.1337 81.7774L62.3784 83.9392H59.8933H57.4082L58.6486 81.7774L59.8933 79.6201Z" fill="#D96980"/>
<path d="M167.134 142.804L169.967 145.301L172.804 147.798L169.232 149.011L165.656 150.225L166.395 146.514L167.134 142.804Z" stroke="#D96980" stroke-width="0.651854" stroke-miterlimit="10"/>
<path d="M8.85113 26.3843L7.86149 30.0372L6.87625 33.69L4.21522 31.0033L1.55859 28.321L5.20486 27.3504L8.85113 26.3843Z" stroke="#D96980" stroke-width="0.651854" stroke-miterlimit="10"/>
<path d="M88.1305 153.975C88.1305 155.1 87.2201 156.013 86.0985 156.013C84.9769 156.013 84.0664 155.1 84.0664 153.975C84.0664 152.85 84.9769 151.937 86.0985 151.937C87.2201 151.932 88.1305 152.845 88.1305 153.975Z" stroke="#D96980" stroke-width="0.651854" stroke-miterlimit="10"/>
<path d="M161.042 21.5625C161.042 23.1507 159.758 24.4389 158.174 24.4389C156.591 24.4389 155.307 23.1507 155.307 21.5625C155.307 19.9743 156.591 18.686 158.174 18.686C159.758 18.686 161.042 19.9698 161.042 21.5625Z" stroke="#D96980" stroke-width="0.651854" stroke-miterlimit="10"/>
<path d="M104.216 99.0496C104.216 100.06 103.398 100.876 102.395 100.876C101.388 100.876 100.574 100.055 100.574 99.0496C100.574 98.0393 101.392 97.2231 102.395 97.2231C103.398 97.2231 104.216 98.0393 104.216 99.0496Z" fill="#D96980"/>
<path d="M162.87 163.217C162.87 164.227 162.052 165.044 161.049 165.044C160.042 165.044 159.229 164.223 159.229 163.217C159.229 162.207 160.047 161.391 161.049 161.391C162.052 161.386 162.87 162.207 162.87 163.217Z" fill="#D96980"/>
<path d="M108.083 136.226C108.083 136.831 107.595 137.316 106.997 137.316C106.394 137.316 105.91 136.826 105.91 136.226C105.91 135.626 106.398 135.137 106.997 135.137C107.599 135.137 108.083 135.626 108.083 136.226Z" fill="#E4B0C8"/>
<path d="M197.256 108.623C198.818 108.623 200.084 107.353 200.084 105.786C200.084 104.219 198.818 102.949 197.256 102.949C195.694 102.949 194.428 104.219 194.428 105.786C194.428 107.353 195.694 108.623 197.256 108.623Z" stroke="#00B5E0" stroke-width="0.651854" stroke-miterlimit="10"/>
<path d="M10.367 128.325C11.7735 128.325 12.9136 127.181 12.9136 125.771C12.9136 124.36 11.7735 123.216 10.367 123.216C8.96049 123.216 7.82031 124.36 7.82031 125.771C7.82031 127.181 8.96049 128.325 10.367 128.325Z" stroke="#00B5E0" stroke-width="0.651854" stroke-miterlimit="10"/>
<path d="M150.687 156.811C150.687 158.029 149.702 159.017 148.488 159.017C147.274 159.017 146.289 158.029 146.289 156.811C146.289 155.594 147.274 154.605 148.488 154.605C149.702 154.601 150.687 155.594 150.687 156.811Z" stroke="#00B5E0" stroke-width="0.651854" stroke-miterlimit="10"/>
<path d="M13.4944 51.3545C13.4944 51.3545 13.0105 54.7074 10.741 55.0559C8.47139 55.4044 6.39095 55.2544 7.66208 61.0205" stroke="#EEDA36" stroke-width="0.651854" stroke-miterlimit="10"/>
<path d="M124.65 22.6689C124.65 22.6689 128.301 22.3115 129.256 24.6232C130.21 26.935 130.593 29.1717 136.324 26.3306" stroke="#EEDA36" stroke-width="0.651854" stroke-miterlimit="10"/>
<path d="M142.268 74.8995C142.268 75.8127 141.529 76.5539 140.618 76.5539C139.708 76.5539 138.969 75.8127 138.969 74.8995C138.969 73.9863 139.708 73.2451 140.618 73.2451C141.533 73.2495 142.268 73.9907 142.268 74.8995Z" fill="#EEDA36"/>
<path d="M54.7833 23.9994C55.6908 23.3006 55.8617 21.9963 55.1651 21.086C54.4684 20.1757 53.1679 20.0043 52.2604 20.703C51.3529 21.4018 51.1819 22.7062 51.8786 23.6165C52.5753 24.5267 53.8757 24.6982 54.7833 23.9994Z" stroke="#D7D4FC" stroke-width="0.651854" stroke-miterlimit="10"/>
<path d="M38.8014 124.347C18.129 124.347 1.37109 108.395 1.37109 88.7185C1.37109 74.8084 9.74123 62.7645 21.9512 56.897" stroke="#C1C0FF" stroke-width="0.651854" stroke-miterlimit="10" stroke-dasharray="2.61 2.61"/>
<path d="M119.641 132.601C121.158 146.533 110.712 159.107 96.3031 160.686C81.894 162.265 68.9803 152.255 67.4629 138.327" stroke="#C1C0FF" stroke-width="0.651854" stroke-miterlimit="10" stroke-dasharray="2.61 2.61"/>
<path d="M126.595 83.1073C138.676 83.1073 148.469 73.501 148.469 61.6511C148.469 49.8011 138.676 40.1948 126.595 40.1948C114.514 40.1948 104.721 49.8011 104.721 61.6511C104.721 73.501 114.514 83.1073 126.595 83.1073Z" stroke="#C1C0FF" stroke-width="0.559036" stroke-miterlimit="10" stroke-dasharray="2.24 2.24"/>
<path d="M71.6722 97.48C85.1128 97.48 96.0085 86.7943 96.0085 73.6128C96.0085 60.4313 85.1128 49.7456 71.6722 49.7456C58.2317 49.7456 47.3359 60.4313 47.3359 73.6128C47.3359 86.7943 58.2317 97.48 71.6722 97.48Z" stroke="#C1C0FF" stroke-width="0.651854" stroke-miterlimit="10" stroke-dasharray="2.61 2.61"/>
<path d="M183.143 130.567C196.321 130.567 207.004 120.664 207.004 108.447C207.004 96.2302 196.321 86.3267 183.143 86.3267C169.964 86.3267 159.281 96.2302 159.281 108.447C159.281 120.664 169.964 130.567 183.143 130.567Z" stroke="#C1C0FF" stroke-width="0.651854" stroke-miterlimit="10" stroke-dasharray="2.61 2.61"/>
<path d="M95.457 147.618H48.5392C46.6528 147.618 45.1211 146.086 45.1211 144.19V113.902C45.1211 112.01 46.6492 110.474 48.5392 110.474H95.457C97.3434 110.474 98.8752 112.006 98.8752 113.902V144.19C98.8752 146.082 97.3434 147.618 95.457 147.618Z" fill="#D0EEDE"/>
<path d="M91.8996 140.949H52.0959C50.2095 140.949 48.6777 139.417 48.6777 137.521V116.063C48.6777 114.171 50.2058 112.634 52.0959 112.634H91.8959C93.7823 112.634 95.3141 114.167 95.3141 116.063V137.521C95.3141 139.413 93.786 140.949 91.8996 140.949Z" fill="white"/>
<path d="M62.615 125.574C62.615 125.574 60.0853 133.571 65.2545 135.339C70.4274 137.106 71.005 135.643 72.1565 138.404C73.3045 141.165 77.9107 139.973 78.3494 135.724C78.7881 131.474 75.6624 131.804 74.0356 131.584C72.4088 131.364 71.323 128.364 71.3377 126.802C71.3559 125.248 63.2 122.318 62.615 125.574Z" fill="black"/>
<path d="M68.3546 133.077C68.3546 133.077 73.8674 133.414 79.5557 138.775C85.2441 144.136 85.0942 157.971 85.0942 157.971L68.1133 157.535L68.3546 133.077Z" fill="white" stroke="black" stroke-width="0.541792" stroke-miterlimit="10"/>
<path d="M74.1822 137.657C77.9878 140.51 85.7307 157.469 83.274 157.527C80.8137 157.586 51.4654 157.351 50.5442 156.435C49.6229 155.522 53.6186 147.436 53.6186 147.436C53.6186 147.436 59.7932 134.709 69.353 134.632C72.5371 134.606 70.117 134.61 74.1822 137.657Z" fill="white"/>
<path d="M58.5901 148.089C58.5901 148.089 55.8994 155.65 56.5209 156.505C57.1424 157.359 76.898 157.583 78.5541 157.528C80.2101 157.473 77.4062 145.552 76.0024 142.124" stroke="#1C191B" stroke-width="0.541792" stroke-miterlimit="10"/>
<path d="M68.9254 152.045C68.9254 152.045 71.1408 150.556 76.8693 151.971C76.8693 151.971 77.9807 152.474 77.1289 152.701C76.2771 152.928 74.1494 152.584 74.1494 152.584C74.1494 152.584 77.4469 152.884 77.5237 153.46C77.5968 154.036 74.4127 153.475 74.4127 153.475C74.4127 153.475 77.8454 154.018 77.8015 154.601C77.7613 155.184 75.853 154.535 73.9996 154.667C72.1461 154.799 68.7682 156.163 68.2454 155.785C67.7226 155.411 66.582 152.921 68.9254 152.045Z" fill="white" stroke="#1C191B" stroke-width="0.541792" stroke-miterlimit="10"/>
<path d="M67.0655 133.081C63.6437 133.11 59.893 134.177 56.2591 137.151C51.2983 141.206 42.8864 153.956 46.5605 160.538C50.2345 167.119 58.6939 164.553 61.6221 163.229C64.5504 161.905 70.2826 157.498 70.9077 155.694C71.6389 153.582 71.3208 152.093 68.6777 151.429C66.0383 150.766 56.3396 151.803 54.4386 153.043" fill="white"/>
<path d="M67.0655 133.081C63.6437 133.11 59.893 134.177 56.2591 137.151C51.2983 141.206 42.8864 153.956 46.5605 160.538C50.2345 167.119 58.6939 164.553 61.6221 163.229C64.5504 161.905 70.2826 157.498 70.9077 155.694C71.6389 153.582 71.3208 152.093 68.6777 151.429C66.0383 150.766 56.3396 151.803 54.4386 153.043" stroke="black" stroke-width="0.541792" stroke-miterlimit="10"/>
<path d="M70.9107 155.693C71.6272 153.629 71.3311 152.162 68.8525 151.48C68.7209 152.144 68.688 152.936 68.7831 153.779C68.9439 155.187 69.4228 156.379 70.0114 157.013C70.4647 156.5 70.7864 156.045 70.9107 155.693Z" fill="#FFBA7B" stroke="black" stroke-width="0.541792" stroke-miterlimit="10"/>
<path d="M62.9563 143.311C62.9563 143.311 60.0646 141.188 61.1796 140.209C62.2946 139.23 63.2524 141.25 63.2524 141.25C63.2524 141.25 63.9251 139.479 64.8792 140.069C65.837 140.66 62.9563 143.311 62.9563 143.311Z" fill="#FFBA7B" stroke="#1C191B" stroke-width="0.541792" stroke-miterlimit="10"/>
<path d="M70.1664 134.25C70.1664 135.251 68.7773 136.065 67.0627 136.065C65.3482 136.065 63.959 135.255 63.959 134.25C63.959 133.249 65.3482 132.435 67.0627 132.435C68.7773 132.439 70.1664 133.249 70.1664 134.25Z" fill="#FFBA7B" stroke="#1C191B" stroke-width="0.541792" stroke-miterlimit="10"/>
<path d="M61.2832 125.575C61.2832 126.84 62.3141 127.867 63.59 127.867C64.8658 127.867 65.8967 126.84 65.8967 125.575C65.8967 124.31 64.8658 123.283 63.59 123.283C62.3141 123.283 61.2832 124.31 61.2832 125.575Z" fill="white" stroke="black" stroke-width="0.541792" stroke-miterlimit="10"/>
<path d="M70.8837 118.872H68.1566C66.3433 118.872 64.8591 120.566 64.8591 122.638V126.88C64.8591 127.001 64.8664 127.119 64.8737 127.236C64.8444 127.361 64.8262 127.489 64.8262 127.625V130.206V130.349V132.931C64.8262 133.866 65.5902 134.636 66.5261 134.636H67.6082C68.5404 134.636 69.3081 133.869 69.3081 132.931V130.646H70.8837C72.697 130.646 74.1812 128.952 74.1812 126.88V122.638C74.1812 120.566 72.697 118.872 70.8837 118.872Z" fill="white" stroke="black" stroke-width="0.541792" stroke-miterlimit="10"/>
<path d="M64.6264 124.545C64.6264 124.545 67.3024 123.654 68.1103 121.923C68.9219 120.192 68.7209 119.818 68.7209 119.818C68.7209 119.818 70.227 121.89 72.6106 122.396C74.5774 122.818 74.4969 122.525 74.6907 122.066C74.8698 121.644 74.9905 118.722 72.0001 116.925C69.0133 115.129 65.8036 115.305 63.5918 117.545C61.3765 119.785 61.647 123.313 62.3928 124.197C63.1349 125.08 64.1183 125.572 64.6264 124.545Z" fill="black"/>
<path d="M66.1885 114.176C66.5272 112.737 65.639 111.295 64.2046 110.955C62.7702 110.616 61.3328 111.507 60.9941 112.945C60.6554 114.384 61.5437 115.826 62.978 116.165C64.4124 116.505 65.8498 115.614 66.1885 114.176Z" fill="black"/>
<path d="M61.4219 125.575C61.4219 126.766 62.3943 127.735 63.5934 127.735C64.7925 127.735 65.7649 126.766 65.7649 125.575C65.7649 124.383 64.7925 123.415 63.5934 123.415C62.3943 123.415 61.4219 124.383 61.4219 125.575Z" fill="white"/>
<path d="M64.7649 125.861C64.7649 125.861 64.8599 124.394 63.3574 124.555" stroke="#020202" stroke-width="0.541792" stroke-miterlimit="10"/>
<path d="M69.3329 124.641C69.6721 124.641 69.9471 124.365 69.9471 124.025C69.9471 123.685 69.6721 123.409 69.3329 123.409C68.9937 123.409 68.7188 123.685 68.7188 124.025C68.7188 124.365 68.9937 124.641 69.3329 124.641Z" fill="black"/>
<path d="M72.748 123.932C72.748 124.222 72.982 124.46 73.2745 124.46C73.5633 124.46 73.8009 124.226 73.8009 123.932C73.8009 123.643 73.5669 123.404 73.2745 123.404C72.982 123.408 72.748 123.643 72.748 123.932Z" fill="black"/>
<path d="M72.1566 126.455C72.1566 126.455 71.8459 127.357 71.1952 127.42C70.5408 127.482 70.029 126.756 69.9961 126.188" stroke="#0C0C0C" stroke-width="0.541792" stroke-miterlimit="10"/>
<path d="M66.5781 126.29C66.5781 127.137 67.2617 127.823 68.1062 127.823C68.9507 127.823 69.6343 127.137 69.6343 126.29C69.6343 125.443 68.9507 124.757 68.1062 124.757C67.2617 124.757 66.5781 125.443 66.5781 126.29Z" fill="#E4B0C8"/>
<path d="M73.7661 125.253C73.8574 125.253 73.9488 125.264 74.0366 125.286V126.877C74.0366 127.116 74.0293 127.343 73.9781 127.567C73.9159 127.578 73.8319 127.585 73.7661 127.585C73.1226 127.585 72.6035 127.064 72.6035 126.419C72.5999 125.774 73.1226 125.253 73.7661 125.253Z" fill="#E4B0C8"/>
<path d="M71.4641 123.408L71.3398 125.506L72.3379 124.897L71.4641 123.408Z" fill="#DB7294"/>
<path d="M91.078 118.871H80.0852C78.9921 118.871 78.1074 117.983 78.1074 116.887C78.1074 115.791 78.9921 114.903 80.0852 114.903H91.078C92.171 114.903 93.0557 115.791 93.0557 116.887C93.0557 117.983 92.171 118.871 91.078 118.871Z" stroke="black" stroke-width="0.541792" stroke-miterlimit="10"/>
<path d="M91.8996 140.949H52.0959C50.2095 140.949 48.6777 139.416 48.6777 137.52V116.062C48.6777 114.17 50.2058 112.634 52.0959 112.634H91.8959C93.7823 112.634 95.314 114.167 95.314 116.062V137.52C95.314 139.412 93.7859 140.949 91.8996 140.949Z" stroke="black" stroke-width="0.541792" stroke-miterlimit="10"/>
<path d="M73.3103 144.183C73.303 144.696 72.9886 145.173 72.5024 145.349C72.0052 145.529 71.4422 145.375 71.1095 144.964C70.7878 144.564 70.7513 143.988 71.0108 143.548C71.2704 143.112 71.7931 142.87 72.294 142.965C72.8826 143.068 73.303 143.585 73.3103 144.183C73.3139 144.476 73.7709 144.48 73.7672 144.183C73.7563 143.471 73.3212 142.841 72.6596 142.588C72.0015 142.338 71.2192 142.547 70.7732 143.094C70.3235 143.644 70.2504 144.436 70.616 145.052C70.9816 145.668 71.6981 145.976 72.3927 145.851C73.186 145.708 73.7526 144.982 73.7636 144.183C73.7709 143.886 73.3139 143.886 73.3103 144.183Z" fill="black"/>
<path d="M68.0222 78.51H26.2856C24.6073 78.51 23.2461 77.1447 23.2461 75.4613V48.5199C23.2461 46.8365 24.6073 45.4712 26.2856 45.4712H68.0222C69.7005 45.4712 71.0617 46.8365 71.0617 48.5199V75.4613C71.0617 77.1447 69.7005 78.51 68.0222 78.51Z" fill="#D0EEDE"/>
<path d="M48.2862 75.4533C48.2784 75.8916 48.0116 76.3027 47.594 76.454C47.1647 76.6091 46.6775 76.4773 46.3913 76.1204C46.1168 75.7791 46.0858 75.2826 46.3101 74.9064C46.5344 74.534 46.9791 74.3246 47.4084 74.4021C47.9149 74.4952 48.2784 74.9374 48.2862 75.4533C48.29 75.7636 48.7734 75.7675 48.7695 75.4533C48.7618 74.8017 48.3635 74.2276 47.7564 73.9988C47.1609 73.7699 46.4455 73.9638 46.0394 74.4603C45.6295 74.9646 45.5599 75.686 45.8925 76.2484C46.2289 76.8108 46.8786 77.0901 47.5166 76.9776C48.2398 76.8457 48.7541 76.1825 48.7657 75.4572C48.7734 75.1391 48.29 75.1391 48.2862 75.4533Z" fill="black"/>
<path d="M64.8618 72.575H29.4555C27.7772 72.575 26.416 71.2097 26.416 69.5264V50.4393C26.416 48.7559 27.7772 47.3906 29.4555 47.3906H64.8618C66.5401 47.3906 67.9013 48.7559 67.9013 50.4393V69.5264C67.9052 71.2097 66.544 72.575 64.8618 72.575Z" fill="white"/>
<path d="M41.2693 65.8921C33.5005 65.8921 27.2012 73.8395 27.2012 83.641H55.3375C55.3375 73.8395 49.0382 65.8921 41.2693 65.8921Z" fill="white" stroke="black" stroke-width="0.573102" stroke-miterlimit="10"/>
<path d="M36.8761 70.1662C36.8761 70.7209 36.4275 71.1747 35.8707 71.1747C35.3138 71.1747 34.8652 70.7247 34.8652 70.1662C34.8652 69.6115 35.3138 69.1577 35.8707 69.1577C36.4275 69.1577 36.8761 69.6115 36.8761 70.1662Z" fill="#FFBA7B"/>
<path d="M40.8637 75.049C41.4809 75.049 41.9812 74.5472 41.9812 73.9281C41.9812 73.309 41.4809 72.8071 40.8637 72.8071C40.2464 72.8071 39.7461 73.309 39.7461 73.9281C39.7461 74.5472 40.2464 75.049 40.8637 75.049Z" fill="#FFBA7B"/>
<path d="M46.1534 70.1662C46.1534 70.7209 45.7048 71.1747 45.148 71.1747C44.595 71.1747 44.1426 70.7247 44.1426 70.1662C44.1426 69.6115 44.5912 69.1577 45.148 69.1577C45.7048 69.1616 46.1534 69.6115 46.1534 70.1662Z" fill="#FFBA7B"/>
<path d="M50.04 73.638C50.5184 73.638 50.9062 73.2491 50.9062 72.7692C50.9062 72.2894 50.5184 71.9004 50.04 71.9004C49.5616 71.9004 49.1738 72.2894 49.1738 72.7692C49.1738 73.2491 49.5616 73.638 50.04 73.638Z" fill="#FFBA7B"/>
<path d="M33.4104 74.5179C33.4104 75.0958 32.9425 75.569 32.3624 75.569C31.7862 75.569 31.3145 75.0997 31.3145 74.5179C31.3145 73.9361 31.7824 73.4668 32.3624 73.4668C32.9425 73.4707 33.4104 73.94 33.4104 74.5179Z" fill="#FFBA7B"/>
<path d="M36.848 78.6765C37.4653 78.6765 37.9656 78.1746 37.9656 77.5555C37.9656 76.9364 37.4653 76.4346 36.848 76.4346C36.2308 76.4346 35.7305 76.9364 35.7305 77.5555C35.7305 78.1746 36.2308 78.6765 36.848 78.6765Z" fill="#FFBA7B"/>
<path d="M47.1821 78.2809C47.6904 78.2809 48.1024 77.8676 48.1024 77.3577C48.1024 76.8479 47.6904 76.4346 47.1821 76.4346C46.6738 76.4346 46.2617 76.8479 46.2617 77.3577C46.2617 77.8676 46.6738 78.2809 47.1821 78.2809Z" fill="#FFBA7B"/>
<path d="M52.6908 79.1763C52.6908 79.6727 52.2925 80.0722 51.7976 80.0722C51.3026 80.0722 50.9043 79.6727 50.9043 79.1763C50.9043 78.6798 51.3026 78.2803 51.7976 78.2803C52.2887 78.2803 52.6908 78.6837 52.6908 79.1763Z" fill="#FFBA7B"/>
<path d="M32.2112 79.6261C32.2112 80.1497 31.7859 80.5764 31.2638 80.5764C30.7418 80.5764 30.3164 80.1497 30.3164 79.6261C30.3164 79.1025 30.7418 78.6758 31.2638 78.6758C31.7859 78.6719 32.2112 79.0986 32.2112 79.6261Z" fill="#FFBA7B"/>
<path d="M43.1644 80.5772C43.1644 81.1009 42.739 81.5275 42.217 81.5275C41.6949 81.5275 41.2695 81.1009 41.2695 80.5772C41.2695 80.0536 41.6949 79.627 42.217 79.627C42.739 79.627 43.1644 80.0536 43.1644 80.5772Z" fill="#FFBA7B"/>
<path d="M56.4247 74.4276L56.7031 73.4812C56.7031 73.4812 56.7301 73.2291 56.3705 73.0895C56.007 72.9498 50.4733 70.8127 50.4733 70.8127C50.4733 70.8127 50.0015 70.5334 49.8701 70.8747C49.7386 71.2161 48.8221 72.7249 48.8221 72.7249C48.8221 72.7249 48.5592 73.1089 48.8801 73.2834C49.2011 73.4618 54.2166 75.3547 54.2166 75.3547L55.4966 75.886C55.4966 75.886 55.9026 76.0334 55.9683 75.8356C56.0302 75.6456 56.4247 74.4276 56.4247 74.4276Z" fill="#00B5E0"/>
<path d="M57.9675 67.7802C57.9675 67.7802 58.4663 65.197 58.0564 64.7121C57.6465 64.2273 57.2559 64.7471 57.0548 65.3987C56.8499 66.0503 56.5289 67.2876 56.5289 67.2876L55.2374 64.685C55.2374 64.685 58.1067 62.5866 58.2149 62.2026C58.3232 61.8186 58.3464 61.5626 58.1492 61.5588C57.952 61.5549 57.3371 61.7217 57.3371 61.7217C57.3371 61.7217 58.3078 60.783 58.0061 60.4494C57.7045 60.1159 56.6565 60.88 56.6565 60.88C56.6565 60.88 57.0316 59.4565 56.8615 59.1811C56.6875 58.9057 55.5119 60.527 55.1909 61.1321C54.8661 61.7372 54.2861 62.7379 54.2861 62.7379C54.2861 62.7379 53.8994 63.0404 53.9148 63.2033C53.9303 63.3662 53.4431 63.727 53.3657 63.7929C53.2922 63.8588 52.7045 65.0884 52.1515 66.3373C51.5985 67.5901 50.7787 69.289 50.7787 69.289L50.3765 70.0609C50.3765 70.0609 49.9473 70.6892 50.8406 70.9452C51.7338 71.2012 55.2567 72.6519 55.2567 72.6519L56.3743 73.0824C56.3743 73.0824 56.7107 73.5556 56.9814 72.4696C57.2521 71.3913 57.9675 67.7802 57.9675 67.7802Z" fill="white"/>
<path d="M55.7627 76.4254C57.7039 70.9914 58.516 65.3013 58.0558 64.7156C57.4178 63.8972 57.0195 65.2935 56.5284 67.2911L55.2368 64.6885C55.2368 64.6885 58.3343 62.5746 58.3343 61.7329C58.3343 60.8912 53.4773 63.2727 53.0519 64.1571C52.7774 64.7273 51.13 69.3817 48.3535 73.4311" stroke="black" stroke-width="0.573102" stroke-miterlimit="10"/>
<path d="M57.0269 61.7992C57.0269 61.7992 58.3069 61.0041 58.0053 60.4533C57.7075 59.9026 53.8289 62.6487 53.9256 63.374" stroke="black" stroke-width="0.573102" stroke-miterlimit="10"/>
<path d="M56.5234 60.9648C56.5234 60.9648 57.32 59.3823 56.8636 59.1845C56.4073 58.9906 54.7793 61.6242 54.5898 62.431" stroke="black" stroke-width="0.573102" stroke-miterlimit="10"/>
<path d="M56.7717 73.2413L50.0547 70.6504" stroke="black" stroke-width="0.573102" stroke-miterlimit="10"/>
<path d="M55.8891 76.0528L48.6191 73.0312" stroke="black" stroke-width="0.573102" stroke-miterlimit="10"/>
<path d="M55.9055 72.9077L54.8691 75.6267" stroke="black" stroke-width="0.573102" stroke-miterlimit="10"/>
<path d="M54.6183 72.4116L53.5781 75.0918" stroke="black" stroke-width="0.573102" stroke-miterlimit="10"/>
<path d="M53.4096 71.895L52.3965 74.5403" stroke="black" stroke-width="0.573102" stroke-miterlimit="10"/>
<path d="M52.0766 71.3994L51.1562 74.0408" stroke="black" stroke-width="0.573102" stroke-miterlimit="10"/>
<path d="M50.9498 70.9878L49.8516 73.5283" stroke="black" stroke-width="0.573102" stroke-miterlimit="10"/>
<path d="M35.7324 57.9449C35.7324 59.1163 36.6876 60.0627 37.8631 60.0627C39.0387 60.0627 39.9939 59.1124 39.9939 57.9449C39.9939 56.7736 39.0387 55.8271 37.8631 55.8271C36.6876 55.8271 35.7324 56.7736 35.7324 57.9449Z" stroke="black" stroke-width="1.1462" stroke-miterlimit="10"/>
<path d="M44.3171 66.4551C44.3171 67.4365 42.9559 68.2355 41.2738 68.2355C39.5917 68.2355 38.2305 67.4403 38.2305 66.4551C38.2305 65.4738 39.5917 64.6748 41.2738 64.6748C42.9559 64.6748 44.3171 65.4738 44.3171 66.4551Z" fill="#00B5E0" stroke="#211F21" stroke-width="0.573102" stroke-miterlimit="10"/>
<path d="M45.0139 51.3706H42.338C40.5591 51.3706 39.1052 53.0346 39.1052 55.0631V59.225C39.1052 59.3413 39.1129 59.4577 39.1206 59.5741C39.0936 59.6982 39.0742 59.8223 39.0742 59.9542V62.487V62.6266V65.1594C39.0742 66.0786 39.8244 66.8311 40.7409 66.8311H41.8005C42.7169 66.8311 43.4671 66.0786 43.4671 65.1594V62.9175H45.0139C46.7928 62.9175 48.2468 61.2535 48.2468 59.225V55.0631C48.2506 53.0307 46.7928 51.3706 45.0139 51.3706Z" fill="white" stroke="black" stroke-width="0.573102" stroke-miterlimit="10"/>
<path d="M42.9004 56.421C42.9004 56.7546 43.1711 57.0261 43.5036 57.0261C43.8362 57.0261 44.1069 56.7546 44.1069 56.421C44.1069 56.0874 43.8362 55.8159 43.5036 55.8159C43.1711 55.8198 42.9004 56.0874 42.9004 56.421Z" fill="#141414"/>
<path d="M46.8496 56.3357C46.8496 56.6227 47.0816 56.8515 47.3639 56.8515C47.6501 56.8515 47.8782 56.6188 47.8782 56.3357C47.8782 56.0487 47.6462 55.8198 47.3639 55.8198C47.0816 55.8198 46.8496 56.0487 46.8496 56.3357Z" fill="#141414"/>
<path d="M46.2714 58.8102C46.2714 58.8102 45.9698 59.6945 45.3279 59.7566C44.686 59.8186 44.1832 59.1049 44.1484 58.5503L46.2714 58.8102Z" fill="#F7F6F6"/>
<path d="M46.0628 58.7517C46.0551 58.775 46.0473 58.7944 46.0357 58.8176C46.0628 58.7517 46.0319 58.8293 46.0203 58.8526C46.0048 58.8875 45.9854 58.9224 45.97 58.9573C45.8772 59.1279 45.7998 59.2482 45.6645 59.3723C45.533 59.4925 45.3629 59.5701 45.1618 59.5391C44.9646 59.5081 44.7789 59.3723 44.6475 59.2094C44.5701 59.1163 44.5044 59.0038 44.458 58.8991C44.4077 58.7866 44.3768 58.6509 44.369 58.55C44.2956 58.6237 44.226 58.6935 44.1525 58.7672C44.7712 58.8448 45.3899 58.9185 46.0087 58.9961C46.0976 59.0077 46.1827 59.0193 46.2716 59.0271C46.3876 59.0426 46.4882 58.9185 46.4882 58.8099C46.4882 58.6819 46.3876 58.6082 46.2716 58.5927C45.6529 58.5151 45.0342 58.4414 44.4154 58.3638C44.3265 58.3522 44.2414 58.3406 44.1525 58.3328C44.0403 58.3212 43.9282 58.4414 43.9359 58.55C43.9785 59.1357 44.369 59.7485 44.9491 59.9308C45.5137 60.1092 46.0048 59.7485 46.2871 59.2831C46.3644 59.1512 46.434 59.0116 46.4843 58.8681C46.523 58.7595 46.4418 58.6315 46.3335 58.6004C46.2097 58.5655 46.1015 58.6392 46.0628 58.7517Z" fill="#141414"/>
<path d="M42.3031 60.1525C43.1318 60.1525 43.8035 59.4787 43.8035 58.6475C43.8035 57.8164 43.1318 57.1426 42.3031 57.1426C41.4745 57.1426 40.8027 57.8164 40.8027 58.6475C40.8027 59.4787 41.4745 60.1525 42.3031 60.1525Z" fill="#E4B0C8"/>
<path d="M47.8537 57.6284C47.9465 57.6284 48.0315 57.6401 48.1166 57.6594V59.2187C48.1166 59.4514 48.1089 59.6764 48.0625 59.8975C48.0006 59.9091 47.9194 59.9169 47.8537 59.9169C47.2233 59.9169 46.7129 59.4049 46.7129 58.7727C46.7129 58.1404 47.2233 57.6284 47.8537 57.6284Z" fill="#E4B0C8"/>
<path d="M45.5944 55.8193L45.4707 57.8789L46.4529 57.2777L45.5944 55.8193Z" fill="#D96980"/>
<path d="M39.8369 57.1422L40.3009 54.6172C40.3009 54.6172 42.9073 55.4511 44.8988 53.8531C46.8903 52.2512 43.6227 51.6073 44.1486 52.802C44.6745 53.9927 46.5036 54.4853 48.762 54.2332C52.1262 53.8608 52.2113 49.7843 50.2778 48.5897C48.3443 47.3912 46.1595 48.7991 46.1595 48.7991C46.1595 48.7991 47.1649 46.7783 44.6475 46.1035C42.5786 45.5488 41.0279 47.3058 40.7998 48.0816C40.7998 48.0816 37.3891 48.419 35.8732 50.5678C34.3574 52.7166 34.2375 55.2843 35.734 57.6271C37.2305 59.9698 39.0171 61.2304 39.0171 61.2304C39.0171 61.2304 39.311 58.2011 39.8369 57.1422Z" fill="black"/>
<path d="M35.7344 57.9454C35.7344 59.1168 36.6895 60.0632 37.8651 60.0632C39.0407 60.0632 39.9958 59.1129 39.9958 57.9454C39.9958 56.774 39.0407 55.8276 37.8651 55.8276C36.6895 55.8276 35.7344 56.774 35.7344 57.9454Z" fill="white"/>
<path d="M39.2836 58.2244C39.2952 58.0383 39.2643 57.8404 39.214 57.662C39.1096 57.2974 38.8776 56.9677 38.5296 56.8087C38.2511 56.6807 37.9418 56.6458 37.6363 56.6807C37.4971 56.6962 37.3617 56.7932 37.3695 56.9483C37.3772 57.0802 37.4855 57.2315 37.6363 57.216C37.7639 57.2043 37.8915 57.2005 38.0191 57.2121C38.0307 57.2121 38.0462 57.216 38.0578 57.216C37.9766 57.2121 38.0268 57.2121 38.0462 57.216C38.0694 57.2199 38.0926 57.2237 38.1197 57.2315C38.1699 57.2431 38.2163 57.2586 38.2627 57.2742C38.3285 57.2974 38.2086 57.247 38.2705 57.278C38.2898 57.2858 38.3091 57.2974 38.3246 57.3052C38.3633 57.3246 38.3981 57.3595 38.4367 57.375C38.3826 57.3517 38.3942 57.3401 38.4135 57.3595C38.4213 57.3672 38.429 57.3711 38.4367 57.3789C38.4522 57.3905 38.4638 57.4022 38.4793 57.4177C38.5064 57.4448 38.5296 57.4797 38.5605 57.5069C38.4986 57.4448 38.5412 57.4797 38.5566 57.503C38.5682 57.5185 38.576 57.5301 38.5837 57.5457C38.603 57.5767 38.6224 57.6116 38.6378 57.6426C38.6456 57.6581 38.6533 57.6775 38.661 57.6931C38.6765 57.7202 38.634 57.6232 38.6494 57.662C38.6533 57.6698 38.6572 57.6775 38.6572 57.6853C38.6688 57.7202 38.6804 57.7551 38.692 57.79C38.7113 57.8482 38.7229 57.9103 38.7345 57.9684C38.7384 57.9801 38.7384 57.9956 38.7422 58.0072C38.75 58.0615 38.7345 57.9297 38.7384 57.9801C38.7422 58.0072 38.7422 58.0305 38.7461 58.0576C38.75 58.1119 38.7538 58.1701 38.75 58.2244C38.7422 58.3641 38.8776 58.4959 39.0168 58.4921C39.1715 58.4843 39.2759 58.3757 39.2836 58.2244Z" fill="#090909"/>
<path d="M64.8618 72.5746H29.4555C27.7772 72.5746 26.416 71.2093 26.416 69.5259V50.4388C26.416 48.7554 27.7772 47.3901 29.4555 47.3901H64.8618C66.5401 47.3901 67.9013 48.7554 67.9013 50.4388V69.5259C67.9052 71.2093 66.544 72.5746 64.8618 72.5746Z" stroke="black" stroke-width="0.573102" stroke-miterlimit="10"/>
<path d="M169.138 134.777H125.905C124.167 134.777 122.758 133.364 122.758 131.62V103.711C122.758 101.967 124.167 100.554 125.905 100.554H169.138C170.876 100.554 172.285 101.967 172.285 103.711V131.62C172.285 133.364 170.876 134.777 169.138 134.777Z" fill="#D0EEDE"/>
<path d="M148.692 131.612C148.684 132.066 148.406 132.492 147.974 132.651C147.529 132.811 147.025 132.675 146.727 132.305C146.442 131.951 146.41 131.437 146.644 131.047C146.874 130.661 147.339 130.442 147.783 130.526C148.307 130.617 148.684 131.079 148.692 131.612C148.696 131.931 149.192 131.935 149.188 131.612C149.18 130.94 148.767 130.346 148.14 130.108C147.521 129.873 146.783 130.072 146.366 130.585C145.942 131.107 145.87 131.851 146.215 132.432C146.561 133.014 147.235 133.304 147.898 133.185C148.648 133.049 149.18 132.361 149.192 131.612C149.192 131.29 148.696 131.29 148.692 131.612Z" fill="black"/>
<path d="M165.859 128.63H129.182C127.444 128.63 126.035 127.217 126.035 125.474V105.701C126.035 103.957 127.444 102.544 129.182 102.544H165.859C167.597 102.544 169.006 103.957 169.006 105.701V125.474C169.006 127.217 167.597 128.63 165.859 128.63Z" fill="white"/>
<path d="M121.761 128.01C121.761 128.01 128.25 121.796 135.156 120.511C142.062 119.229 155.893 119.356 163.378 129.28C170.864 139.209 152.468 147.99 151.96 148.054C151.452 148.118 121.571 143.102 120.428 142.238C119.284 141.374 114.974 136.219 121.761 128.01Z" fill="#00B5E0" stroke="black" stroke-width="0.53467" stroke-miterlimit="10"/>
<path d="M149.941 122.895C149.941 122.895 161.129 145.443 158.624 149.75C156.12 154.057 137.581 158.165 128.33 153.46C117.511 147.959 131.743 125.108 135.105 119.842L149.941 122.895Z" fill="#00B5E0" stroke="black" stroke-width="0.53467" stroke-miterlimit="10"/>
<path d="M132.598 128.011C132.598 129.428 133.745 130.578 135.158 130.578C136.57 130.578 137.717 129.428 137.717 128.011C137.717 126.593 136.57 125.443 135.158 125.443C133.745 125.443 132.598 126.593 132.598 128.011Z" fill="white"/>
<path d="M165.857 128.63H129.181C127.442 128.63 126.033 127.217 126.033 125.474V105.701C126.033 103.957 127.442 102.544 129.181 102.544H165.857C167.595 102.544 169.004 103.957 169.004 105.701V125.474C169.004 127.217 167.595 128.63 165.857 128.63Z" stroke="black" stroke-width="0.588196" stroke-miterlimit="10"/>
<path d="M151.517 121.622C151.847 118.403 148.09 115.379 143.127 114.868C138.164 114.358 133.874 116.554 133.545 119.774C133.216 122.993 136.972 126.017 141.935 126.527C146.898 127.038 151.188 124.841 151.517 121.622Z" fill="#00B5E0" stroke="black" stroke-width="0.571491" stroke-miterlimit="10"/>
<path d="M137.766 111.776C137.766 113.073 138.825 114.128 140.131 114.128C141.437 114.128 142.496 113.073 142.496 111.776C142.496 110.478 141.437 109.423 140.131 109.423C138.825 109.423 137.766 110.478 137.766 111.776Z" stroke="black" stroke-width="1.10587" stroke-miterlimit="10"/>
<path d="M148.067 104.475H145.094C143.118 104.475 141.503 106.322 141.503 108.575V113.193C141.503 113.324 141.51 113.451 141.518 113.579C141.487 113.714 141.467 113.857 141.467 114.001V116.811V116.967V119.777C141.467 120.796 142.3 121.632 143.316 121.632H144.495C145.511 121.632 146.345 120.796 146.345 119.777V117.289H148.063C150.04 117.289 151.655 115.442 151.655 113.189V108.571C151.659 106.322 150.044 104.475 148.067 104.475Z" fill="white" stroke="black" stroke-width="0.552904" stroke-miterlimit="10"/>
<path d="M145.711 110.083C145.711 110.454 146.013 110.756 146.382 110.756C146.751 110.756 147.052 110.454 147.052 110.083C147.052 109.713 146.751 109.411 146.382 109.411C146.013 109.415 145.711 109.713 145.711 110.083Z" fill="#0C0C0C"/>
<path d="M150.098 109.988C150.098 110.307 150.352 110.562 150.669 110.562C150.987 110.562 151.241 110.303 151.241 109.988C151.241 109.67 150.987 109.415 150.669 109.415C150.352 109.415 150.098 109.67 150.098 109.988Z" fill="#0C0C0C"/>
<path d="M149.453 112.735C149.453 112.735 149.116 113.718 148.405 113.786C147.695 113.854 147.135 113.061 147.1 112.444L149.453 112.735Z" fill="#FFF7F7"/>
<path d="M149.254 112.679C149.246 112.703 149.235 112.727 149.227 112.751C149.25 112.687 149.215 112.779 149.207 112.798C149.187 112.838 149.171 112.874 149.151 112.914C149.056 113.093 148.953 113.244 148.806 113.38C148.651 113.523 148.445 113.607 148.226 113.575C147.988 113.539 147.782 113.384 147.631 113.201C147.457 112.994 147.33 112.719 147.31 112.444C147.242 112.512 147.171 112.584 147.103 112.651C147.79 112.735 148.48 112.818 149.167 112.906C149.266 112.918 149.362 112.93 149.461 112.942C149.572 112.954 149.667 112.834 149.667 112.735C149.667 112.611 149.572 112.54 149.461 112.528C148.774 112.444 148.084 112.361 147.397 112.273C147.298 112.261 147.202 112.249 147.103 112.237C146.996 112.225 146.889 112.345 146.897 112.444C146.945 113.081 147.369 113.75 147.996 113.949C148.611 114.14 149.139 113.75 149.445 113.244C149.532 113.101 149.608 112.95 149.659 112.791C149.747 112.536 149.342 112.428 149.254 112.679Z" fill="#0C0C0C"/>
<path d="M143.387 112.556C143.387 113.479 144.133 114.224 145.05 114.224C145.966 114.224 146.713 113.475 146.713 112.556C146.713 111.632 145.966 110.888 145.05 110.888C144.133 110.888 143.387 111.632 143.387 112.556Z" fill="#E4B0C8"/>
<path d="M151.211 111.425C151.315 111.425 151.41 111.437 151.505 111.461V113.193C151.505 113.452 151.497 113.702 151.442 113.945C151.37 113.957 151.283 113.965 151.211 113.965C150.513 113.965 149.945 113.396 149.945 112.695C149.941 111.995 150.509 111.425 151.211 111.425Z" fill="#E4B0C8"/>
<path d="M148.703 109.414L148.568 111.699L149.656 111.034L148.703 109.414Z" fill="#DB7294"/>
<path d="M142.283 111.7L142.83 108.081C142.83 108.081 152.812 109.335 156.047 104.475C159.281 99.6102 155.884 97.6874 154.237 97.9621C152.59 98.2368 150.669 100.601 150.669 100.601C150.669 100.601 152.201 98.5115 150.669 98.181C149.137 97.8506 147.446 99.447 146.565 101.095C146.565 101.095 139.985 100.478 137.762 104.471C135.54 108.464 137.342 111.298 141.41 115.422L141.679 113.113L142.283 111.7Z" fill="black"/>
<path d="M137.768 111.776C137.768 113.073 138.827 114.128 140.133 114.128C141.439 114.128 142.498 113.073 142.498 111.776C142.498 110.478 141.439 109.423 140.133 109.423C138.827 109.423 137.768 110.478 137.768 111.776Z" fill="white"/>
<path d="M141.669 112.086C141.681 111.883 141.649 111.668 141.594 111.473C141.483 111.079 141.233 110.72 140.852 110.545C140.546 110.406 140.209 110.374 139.879 110.406C139.744 110.418 139.617 110.513 139.621 110.665C139.625 110.792 139.736 110.935 139.879 110.923C140.022 110.907 140.161 110.903 140.304 110.919C140.312 110.919 140.344 110.919 140.347 110.923C140.34 110.911 140.292 110.915 140.347 110.923C140.375 110.927 140.403 110.935 140.427 110.939C140.482 110.951 140.534 110.971 140.59 110.987C140.657 111.011 140.546 110.963 140.609 110.995C140.629 111.007 140.649 111.015 140.673 111.027C140.689 111.035 140.788 111.11 140.796 111.106C140.788 111.11 140.744 111.063 140.78 111.095C140.788 111.103 140.796 111.106 140.804 111.114C140.82 111.126 140.836 111.142 140.852 111.158C140.879 111.186 140.907 111.234 140.939 111.258C140.899 111.23 140.907 111.214 140.927 111.242C140.931 111.25 140.935 111.254 140.939 111.262C140.951 111.278 140.959 111.294 140.971 111.31C140.994 111.345 141.014 111.381 141.03 111.421C141.038 111.441 141.046 111.457 141.058 111.477C141.074 111.505 141.03 111.409 141.046 111.449C141.05 111.457 141.054 111.465 141.058 111.473C141.074 111.513 141.086 111.548 141.098 111.588C141.117 111.652 141.133 111.72 141.145 111.787C141.149 111.803 141.149 111.815 141.153 111.831C141.161 111.887 141.145 111.755 141.149 111.811C141.153 111.839 141.157 111.867 141.157 111.895C141.161 111.958 141.165 112.018 141.161 112.082C141.153 112.217 141.284 112.345 141.419 112.341C141.558 112.337 141.661 112.233 141.669 112.086Z" fill="#020202"/>
<path d="M146.564 101.095C146.564 101.095 139.988 107.91 137.261 109.984C137.261 109.984 133.717 102.114 135.73 99.9164C137.341 98.1568 145.215 99.1919 146.564 101.095Z" fill="#FFBA7B" stroke="black" stroke-width="0.552904" stroke-miterlimit="10"/>
<path d="M144.39 99.8125L136.373 107.742" stroke="black" stroke-width="0.552904" stroke-miterlimit="10"/>
<path d="M148.392 118.041L149.463 122.034L141.347 124.614L140.926 122.946L137.926 121.158L139.168 117.791L142.72 120.561L142.954 120.756C142.954 120.756 143.085 120.975 143.74 120.613C144.399 120.243 148.392 118.041 148.392 118.041Z" fill="#00B5E0"/>
<path d="M148.705 117.866L140.962 122.142L140.914 123.157" stroke="black" stroke-width="0.552904" stroke-miterlimit="10"/>
<path d="M138.977 117.779L143.195 120.908" stroke="black" stroke-width="0.552904" stroke-miterlimit="10"/>
<path d="M138.979 122.429C138.979 122.429 133.502 126.071 129.764 124.61" stroke="black" stroke-width="0.552904" stroke-miterlimit="10"/>
<path d="M138.846 123.01C139.183 123.01 139.457 122.735 139.457 122.397C139.457 122.058 139.183 121.784 138.846 121.784C138.508 121.784 138.234 122.058 138.234 122.397C138.234 122.735 138.508 123.01 138.846 123.01Z" stroke="black" stroke-width="0.552904" stroke-miterlimit="10"/>
<path d="M145.842 123.786C145.842 124.136 146.124 124.419 146.473 124.419C146.822 124.419 147.104 124.136 147.104 123.786C147.104 123.435 146.822 123.153 146.473 123.153C146.124 123.157 145.842 123.439 145.842 123.786Z" stroke="black" stroke-width="0.552904" stroke-miterlimit="10"/>
<path d="M146.473 123.786C146.473 123.786 148.707 130.255 152.609 132.134" stroke="black" stroke-width="0.552904" stroke-miterlimit="10"/>
<path d="M185.314 53.9955H121.087C118.874 53.9955 117.082 52.198 117.082 49.9783V4.01727C117.082 1.79759 118.874 0 121.087 0H185.314C187.527 0 189.319 1.79759 189.319 4.01727V49.9783C189.319 52.198 187.527 53.9955 185.314 53.9955Z" fill="#C7E4E0"/>
<path d="M154.058 60.7758H147.763C146.636 60.7758 145.877 59.6187 146.327 58.5797L149.72 50.7223L152.622 43.9983C153.166 42.7349 154.952 42.7349 155.497 43.9983L158.398 50.7223L161.792 58.5797C162.239 59.6158 161.483 60.7758 160.355 60.7758H154.058Z" fill="#C7E4E0"/>
<path d="M155.979 47.9391C155.979 48.9634 155.152 49.7928 154.131 49.7928C153.11 49.7928 152.283 48.9634 152.283 47.9391C152.283 46.9149 153.11 46.0854 154.131 46.0854C155.152 46.0854 155.979 46.9149 155.979 47.9391Z" stroke="black" stroke-width="0.436133" stroke-miterlimit="10"/>
<path d="M184.346 43.8562H123.233C122.218 43.8562 121.396 43.0298 121.396 42.0144V5.99177C121.396 4.97343 122.22 4.1499 123.233 4.1499H184.346C185.361 4.1499 186.182 4.97638 186.182 5.99177V42.0144C186.182 43.0327 185.361 43.8562 184.346 43.8562Z" fill="white" stroke="black" stroke-width="0.436133" stroke-miterlimit="10"/>
<path d="M129.565 39.1073H165.906C168.093 39.1073 169.864 37.3304 169.864 35.1373V9.57258C169.864 7.37947 168.093 5.60254 165.906 5.60254H129.565C127.379 5.60254 125.607 7.37947 125.607 9.57258V35.1403C125.607 37.3304 127.379 39.1073 129.565 39.1073Z" fill="white" stroke="black" stroke-width="0.436133" stroke-miterlimit="10"/>
<path d="M129.93 8.66972C129.93 9.08885 129.595 9.4283 129.183 9.4283C128.771 9.4283 128.436 9.08885 128.436 8.66972C128.436 8.25058 128.771 7.91113 129.183 7.91113C129.595 7.91113 129.93 8.25058 129.93 8.66972Z" fill="#EC6060" stroke="black" stroke-width="0.436133" stroke-miterlimit="10"/>
<path d="M132.907 8.66924C132.907 9.08838 132.572 9.42783 132.16 9.42783C131.748 9.42783 131.412 9.08838 131.412 8.66924C131.412 8.25009 131.748 7.91064 132.16 7.91064C132.575 7.91064 132.907 8.25009 132.907 8.66924Z" fill="#C7E4E0" stroke="black" stroke-width="0.436133" stroke-miterlimit="10"/>
<path d="M135.889 8.66924C135.889 9.08838 135.554 9.42783 135.142 9.42783C134.73 9.42783 134.395 9.08838 134.395 8.66924C134.395 8.25009 134.73 7.91064 135.142 7.91064C135.554 7.91064 135.889 8.25009 135.889 8.66924Z" fill="#00B5E0" stroke="black" stroke-width="0.436133" stroke-miterlimit="10"/>
<path d="M125.709 11.3286H169.863" stroke="black" stroke-width="0.436133" stroke-miterlimit="10"/>
<path d="M167.35 25.3696H159.107V30.5233H167.35V25.3696Z" stroke="#88E5D4" stroke-width="0.436133" stroke-miterlimit="10"/>
<path d="M160.113 26.7241H166.099" stroke="#88E5D4" stroke-width="0.436133" stroke-miterlimit="10"/>
<path d="M160.113 27.6621H166.099" stroke="#88E5D4" stroke-width="0.436133" stroke-miterlimit="10"/>
<path d="M160.113 28.6016H166.099" stroke="#88E5D4" stroke-width="0.436133" stroke-miterlimit="10"/>
<path d="M149.342 20.0739V14.0259C146.011 14.0259 143.312 16.7326 143.312 20.0739C143.312 23.4152 146.011 26.1219 149.342 26.1219C152.674 26.1219 155.372 23.4152 155.372 20.0739C155.372 19.6371 155.322 19.2091 155.234 18.7988L149.342 20.0739Z" fill="#EC6060"/>
<path d="M155.975 17.7392C155.393 15.0118 152.977 12.9663 150.084 12.9663V19.0143L155.975 17.7392Z" fill="#FFA370"/>
<path d="M138.004 14.3836H130.777C130.497 14.3836 130.268 14.1563 130.268 13.8729C130.268 13.5925 130.494 13.3623 130.777 13.3623H138.004C138.284 13.3623 138.513 13.5896 138.513 13.8729C138.51 14.1563 138.284 14.3836 138.004 14.3836Z" stroke="#88E5D4" stroke-width="0.436133" stroke-miterlimit="10"/>
<path d="M130.787 15.1421H137.782" stroke="#88E5D4" stroke-width="0.436133" stroke-miterlimit="10"/>
<path d="M130.787 16.0801H137.782" stroke="#88E5D4" stroke-width="0.436133" stroke-miterlimit="10"/>
<path d="M130.787 17.0161H137.782" stroke="#88E5D4" stroke-width="0.436133" stroke-miterlimit="10"/>
<path d="M139.031 14.0352H141.671L145.476 17.53" stroke="#88E5D4" stroke-width="0.436133" stroke-miterlimit="10"/>
<path d="M166.84 14.9744H159.613C159.333 14.9744 159.104 14.7471 159.104 14.4638C159.104 14.1834 159.33 13.9531 159.613 13.9531H166.84C167.12 13.9531 167.349 14.1804 167.349 14.4638C167.349 14.7471 167.123 14.9744 166.84 14.9744Z" stroke="#88E5D4" stroke-width="0.436133" stroke-miterlimit="10"/>
<path d="M159.629 15.7334H166.624" stroke="#88E5D4" stroke-width="0.436133" stroke-miterlimit="10"/>
<path d="M159.629 16.6719H166.624" stroke="#88E5D4" stroke-width="0.436133" stroke-miterlimit="10"/>
<path d="M159.629 17.6074H166.624" stroke="#88E5D4" stroke-width="0.436133" stroke-miterlimit="10"/>
<path d="M159.629 18.5815H166.624" stroke="#88E5D4" stroke-width="0.436133" stroke-miterlimit="10"/>
<path d="M159.629 19.52H166.624" stroke="#88E5D4" stroke-width="0.436133" stroke-miterlimit="10"/>
<path d="M159.629 20.4585H166.624" stroke="#88E5D4" stroke-width="0.436133" stroke-miterlimit="10"/>
<path d="M153.748 16.8399L156.299 14.7412H158.565" stroke="#88E5D4" stroke-width="0.436133" stroke-miterlimit="10"/>
<path d="M131.316 22.4814V34.365H149.247" stroke="#88E5D4" stroke-width="0.436133" stroke-miterlimit="10"/>
<path d="M131.313 22.5459H130.672L130.993 21.991L131.313 21.436L131.631 21.991L131.952 22.5459H131.313Z" fill="#88E5D4"/>
<path d="M149.059 34.3651V33.7246L149.615 34.0434L150.168 34.3651L149.615 34.6869L149.059 35.0086V34.3651Z" fill="#88E5D4"/>
<path d="M129.826 33.3819L134.187 29.4413L137.775 33.311L142.301 24.999L145.608 33.1103" stroke="#C7E4E0" stroke-width="0.436133" stroke-miterlimit="10"/>
<path d="M128.34 27.5187C128.34 27.5187 128.499 27.3534 128.764 27.1113" stroke="#EC6060" stroke-width="0.436133" stroke-miterlimit="10"/>
<path d="M129.639 26.385C130.798 25.5113 132.473 24.6111 133.538 25.6412C135.301 27.3443 134.883 28.6549 138.423 27.8904C141.751 27.1731 145.836 28.1649 147.037 33.8617" stroke="#EC6060" stroke-width="0.436133" stroke-miterlimit="10" stroke-dasharray="1.68 1.68"/>
<path d="M147.143 34.4224C147.175 34.6113 147.204 34.8061 147.231 35.0068" stroke="#EC6060" stroke-width="0.436133" stroke-miterlimit="10"/>
<path d="M184.117 20.8159C184.117 20.8159 195.003 25.0841 200.77 43.544L193.399 47.213L187.943 33.2396L184.117 20.8159Z" fill="#00B5E0" stroke="black" stroke-width="0.436133" stroke-miterlimit="10"/>
<path d="M151.664 24.4704C151.664 24.4704 149.81 23.275 150.039 22.7053C150.269 22.1356 150.807 22.4544 150.807 22.4544C150.807 22.4544 150.254 22.115 150.51 21.7371C150.766 21.3623 151.113 21.501 151.113 21.501C151.113 21.501 150.722 20.9254 151.099 20.7099C151.475 20.4974 152.043 20.6332 152.043 20.6332C152.043 20.6332 151.826 20.155 151.837 19.9838C151.849 19.8156 152.093 19.4407 152.882 19.6267C153.674 19.8097 155.363 20.7542 155.934 21.0464C156.505 21.3387 157.146 22.0116 157.167 21.7932C157.184 21.5748 157.429 20.1816 157.97 19.7742C158.509 19.3669 158.723 19.302 158.821 20.0753C158.918 20.8487 158.891 23.0034 159.936 24.5914C160.981 26.1794 161.337 27.2362 162.44 28.5231C163.544 29.81 164.05 30.4594 164.05 30.4594L159.077 34.521C159.077 34.521 154.25 27.2362 154.215 27.186C154.18 27.1388 152.614 25.2113 151.664 24.4704Z" fill="white"/>
<path d="M150.647 22.4156C150.647 22.4156 150.029 21.4061 151.186 21.5301C152.342 21.6541 153.911 22.7255 154.664 23.2952" stroke="black" stroke-width="0.436133" stroke-miterlimit="10"/>
<path d="M155.924 25.5802C155.924 25.5802 155.5 24.2844 157.345 23.7472C157.345 23.7472 156.642 20.9962 157.972 19.7742C159.302 18.5522 158.578 21.6987 159.467 23.6144C160.355 25.5301 161.365 27.3778 162.312 28.3873C163.26 29.3968 164.078 30.4948 164.078 30.4948L159.049 34.5446C159.049 34.5446 157.33 31.9235 154.679 27.859C152.027 23.7945 149.688 23.703 150.044 22.7053C150.482 21.4774 153.608 24.37 153.608 24.37" stroke="black" stroke-width="0.436133" stroke-miterlimit="10"/>
<path d="M151.183 21.5308C151.183 21.5308 150.589 20.7958 151.345 20.604C151.471 20.5715 151.627 20.5685 151.807 20.5922C152.716 20.7102 154.229 21.4777 155.332 22.3336" stroke="black" stroke-width="0.436133" stroke-miterlimit="10"/>
<path d="M157.18 22.0024C157.18 22.0024 155.014 19.9746 152.545 19.6411C151.65 19.52 151.688 20.4144 152.565 20.7863" stroke="black" stroke-width="0.436133" stroke-miterlimit="10"/>
<path d="M167.673 33.0096C166.973 32.5373 166.258 31.9204 165.572 31.2533C163.347 29.0838 161.446 26.38 161.446 26.38L155.979 31.0791C155.979 31.0791 161.944 40.3652 165.525 41.5252C169.106 42.6852 177.296 33.346 177.296 33.346L177.941 21.0581C177.941 21.0581 176.402 21.8875 175.166 23.0062C173.138 24.8422 169.592 28.1274 165.575 31.2533" fill="#00B5E0"/>
<path d="M167.673 33.0096C166.973 32.5373 166.258 31.9204 165.572 31.2533C163.347 29.0838 161.446 26.38 161.446 26.38L155.979 31.0791C155.979 31.0791 161.944 40.3652 165.525 41.5252C169.106 42.6852 177.296 33.346 177.296 33.346L177.941 21.0581C177.941 21.0581 176.402 21.8875 175.166 23.0062C173.138 24.8422 169.592 28.1274 165.575 31.2533" stroke="black" stroke-width="0.436133" stroke-miterlimit="10"/>
<path d="M163.23 28.6886C162.161 27.4016 161.446 26.3833 161.446 26.3833L155.979 31.0824C155.979 31.0824 156.673 32.1627 157.727 33.6297L163.23 28.6886Z" fill="white" stroke="black" stroke-width="0.436133" stroke-miterlimit="10"/>
<path d="M161.886 28.1634C161.886 28.37 161.718 28.5353 161.515 28.5353C161.309 28.5353 161.145 28.3671 161.145 28.1634C161.145 27.9597 161.312 27.7915 161.515 27.7915C161.718 27.7915 161.886 27.9568 161.886 28.1634Z" fill="white" stroke="black" stroke-width="0.436133" stroke-miterlimit="10"/>
<path d="M192.792 44.37C192.792 44.2667 192.792 42.174 192.792 42.0736C192.792 29.9716 187.659 20.1602 181.326 20.1602C174.994 20.1602 169.861 29.9716 169.861 42.0736C169.861 42.1769 169.861 44.2697 169.861 44.37H192.792Z" fill="#00B5E0"/>
<path d="M181.291 25.6548V44.3716" stroke="black" stroke-width="0.436133" stroke-miterlimit="10"/>
<path d="M181.325 25.8491L185.745 21.8495C184.386 20.7633 182.891 20.1582 181.325 20.1582C179.81 20.1582 178.227 20.8282 176.902 21.8466L181.325 25.8491Z" fill="white" stroke="black" stroke-width="0.436133" stroke-miterlimit="10"/>
<path d="M171.509 30.7517C170.465 34.0546 169.861 37.9302 169.861 42.0744C169.861 42.1777 169.861 44.2705 169.861 44.3708H192.792C192.792 44.2675 192.792 42.1748 192.792 42.0744C192.792 37.8358 192.162 33.8775 191.07 30.5244" stroke="black" stroke-width="0.436133" stroke-miterlimit="10"/>
<path d="M185.75 21.8495C184.391 20.7603 182.896 20.1611 181.33 20.1611C179.768 20.1611 178.281 20.7574 176.922 21.8377" stroke="black" stroke-width="0.436133" stroke-miterlimit="10"/>
<path d="M184.346 43.8562H123.233C122.218 43.8562 121.396 43.0298 121.396 42.0144V5.99177C121.396 4.97343 122.22 4.1499 123.233 4.1499H184.346C185.361 4.1499 186.182 4.97638 186.182 5.99177V42.0144C186.182 43.0327 185.361 43.8562 184.346 43.8562Z" stroke="black" stroke-width="0.436133" stroke-miterlimit="10"/>
<path d="M185.877 23.0352L183.437 19.3604C182.961 18.6401 182.063 18.3745 181.289 18.6608C180.515 18.3715 179.617 18.6401 179.141 19.3604L176.701 23.0352C176.145 23.8735 176.372 25.0069 177.207 25.5678L177.558 25.801C178.393 26.3588 179.523 26.1315 180.082 25.2933L181.292 23.4721L182.501 25.2933C183.058 26.1315 184.188 26.3588 185.026 25.801L185.377 25.5678C186.206 25.0069 186.433 23.8735 185.877 23.0352Z" fill="#FEFEFF" stroke="black" stroke-width="0.436133" stroke-miterlimit="10"/>
<path d="M181.679 22.6013C181.679 22.7961 181.52 22.9555 181.326 22.9555C181.132 22.9555 180.973 22.7961 180.973 22.6013C180.973 22.4065 181.132 22.2471 181.326 22.2471C181.52 22.2471 181.679 22.4065 181.679 22.6013Z" fill="#FEFEFF" stroke="black" stroke-width="0.436133" stroke-miterlimit="10"/>
<path d="M186.134 13.9165C186.134 14.9614 185.284 15.8085 184.233 15.8085C183.182 15.8085 182.332 14.9614 182.332 13.9165C182.332 12.8716 183.182 12.0244 184.233 12.0244C185.284 12.0244 186.134 12.8716 186.134 13.9165Z" stroke="black" stroke-width="0.872265" stroke-miterlimit="10"/>
<path d="M177.847 8.0459H180.236C181.826 8.0459 183.123 9.5306 183.123 11.3429V15.0562C183.123 15.1595 183.117 15.2628 183.109 15.3661C183.135 15.4753 183.15 15.5904 183.15 15.7056V17.9666V18.0935V20.3545C183.15 21.1751 182.482 21.8451 181.664 21.8451H180.716C179.898 21.8451 179.23 21.1751 179.23 20.3545V18.3532H177.85C176.261 18.3532 174.963 16.8685 174.963 15.0562V11.3429C174.96 9.5306 176.258 8.0459 177.847 8.0459Z" fill="white" stroke="black" stroke-width="0.436133" stroke-miterlimit="10"/>
<path d="M182.497 13.8579L182.055 10.9475C182.055 10.9475 174.03 11.957 171.429 8.04601C168.827 4.13502 171.561 2.58833 172.882 2.80971C174.204 3.03108 175.752 4.93198 175.752 4.93198C175.752 4.93198 174.522 3.25246 175.752 2.98681C176.982 2.72116 178.344 4.00514 179.051 5.33045C179.051 5.33045 184.339 4.83457 186.128 8.04601C187.917 11.2575 186.466 13.5332 183.197 16.8509L182.979 14.9943L182.497 13.8579Z" fill="black"/>
<path d="M191.7 4.52151C191.7 6.4047 190.179 7.93073 188.301 7.93073C186.424 7.93073 184.902 6.4047 184.902 4.52151C184.902 2.63833 186.424 1.1123 188.301 1.1123C190.179 1.11526 191.7 2.64128 191.7 4.52151Z" fill="black"/>
<path d="M181.776 14.4273C181.776 15.1859 181.161 15.8028 180.405 15.8028C179.648 15.8028 179.033 15.1859 179.033 14.4273C179.033 13.6687 179.648 13.0518 180.405 13.0518C181.164 13.0518 181.776 13.6687 181.776 14.4273Z" fill="#E4B0C8"/>
<path d="M175.328 13.3281C175.245 13.3281 175.163 13.3399 175.086 13.3576V14.7833C175.086 14.9958 175.063 15.2054 175.107 15.4061C175.163 15.415 175.269 15.4209 175.328 15.4209C175.904 15.4209 176.372 14.9516 176.372 14.373C176.372 13.7945 175.904 13.3281 175.328 13.3281Z" fill="#E4B0C8"/>
<path d="M179.297 12.5046C179.297 12.7762 179.08 12.9946 178.809 12.9946C178.538 12.9946 178.32 12.7762 178.32 12.5046C178.32 12.2331 178.538 12.0146 178.809 12.0146C179.08 12.0176 179.297 12.236 179.297 12.5046Z" fill="#141414"/>
<path d="M176.106 12.4352C176.106 12.6655 175.921 12.8514 175.688 12.8514C175.459 12.8514 175.273 12.6655 175.273 12.4352C175.273 12.205 175.459 12.019 175.688 12.019C175.921 12.019 176.106 12.205 176.106 12.4352Z" fill="#141414"/>
<path d="M176.57 14.4357C176.57 14.4357 176.815 15.153 177.333 15.2002C177.85 15.2504 178.257 14.6748 178.286 14.2231L176.57 14.4357Z" fill="#F7F6F6"/>
<path d="M176.412 14.4803C176.506 14.7548 176.674 15.0234 176.906 15.1976C177.309 15.5045 177.836 15.3569 178.139 14.9821C178.316 14.7666 178.431 14.5039 178.451 14.2264C178.457 14.1438 178.372 14.0523 178.286 14.0611C177.786 14.1231 177.286 14.1851 176.783 14.2471C176.712 14.256 176.641 14.2648 176.571 14.2737C176.482 14.2855 176.406 14.3416 176.406 14.439C176.406 14.5187 176.482 14.6161 176.571 14.6043C177.071 14.5423 177.571 14.4803 178.074 14.4183C178.145 14.4094 178.216 14.4006 178.286 14.3917C178.23 14.3357 178.177 14.2825 178.122 14.2264C178.098 14.5482 177.857 14.9378 177.521 15.0234C177.203 15.1061 176.974 14.8611 176.83 14.6043C176.797 14.5482 176.771 14.4891 176.744 14.4301C176.733 14.4035 176.756 14.4655 176.747 14.4331C176.744 14.4272 176.741 14.4183 176.738 14.4124C176.735 14.4065 176.733 14.3976 176.73 14.3917C176.662 14.194 176.344 14.2796 176.412 14.4803Z" fill="#141414"/>
<path d="M181.283 12.2198C181.283 13.2736 180.521 14.1296 179.579 14.1296C178.637 14.1296 177.875 13.2736 177.875 12.2198C177.875 11.1661 178.637 10.3101 179.579 10.3101C180.521 10.3101 181.283 11.1661 181.283 12.2198Z" stroke="#00B5E0" stroke-width="0.436133" stroke-miterlimit="10"/>
<path d="M175.332 13.6871C176.106 13.6871 176.733 12.9232 176.733 11.981C176.733 11.0387 176.106 10.2749 175.332 10.2749C174.559 10.2749 173.932 11.0387 173.932 11.981C173.932 12.9232 174.559 13.6871 175.332 13.6871Z" stroke="#00B5E0" stroke-width="0.436133" stroke-miterlimit="10"/>
<path d="M177.281 12.0249V13.6838L176.416 13.1554L177.281 12.0249Z" fill="#00B5E0"/>
<path d="M176.693 12.4907C176.693 12.4907 177.379 12.2023 177.876 12.6143" stroke="#00B5E0" stroke-width="0.436133" stroke-miterlimit="10"/>
<path d="M186.132 13.9165C186.132 14.9614 185.282 15.8085 184.231 15.8085C183.181 15.8085 182.33 14.9614 182.33 13.9165C182.33 12.8716 183.181 12.0244 184.231 12.0244C185.282 12.0244 186.132 12.8716 186.132 13.9165Z" fill="white"/>
<path d="M183.406 14.1675C183.403 14.1261 183.406 14.0848 183.406 14.0435C183.406 14.0258 183.409 14.0051 183.409 13.9874C183.409 13.9756 183.412 13.9667 183.412 13.9549C183.418 13.8989 183.403 14.0051 183.412 13.9608C183.421 13.9077 183.43 13.8546 183.445 13.8044C183.45 13.7778 183.459 13.7513 183.468 13.7247C183.474 13.71 183.477 13.6952 183.483 13.6804C183.486 13.6745 183.489 13.6657 183.492 13.6598C183.503 13.6273 183.492 13.6657 183.486 13.6745C183.521 13.6184 183.545 13.5535 183.583 13.4974C183.586 13.4915 183.592 13.4886 183.595 13.4827C183.612 13.4591 183.615 13.4738 183.586 13.4945C183.598 13.4886 183.606 13.4679 183.618 13.4561C183.642 13.4295 183.668 13.403 183.695 13.3794C183.701 13.3735 183.706 13.3705 183.709 13.3676C183.727 13.3498 183.739 13.3587 183.701 13.3735C183.715 13.3676 183.73 13.3528 183.745 13.3439C183.777 13.3233 183.812 13.3026 183.851 13.2849C183.857 13.282 183.892 13.2672 183.857 13.282C183.821 13.2967 183.868 13.2761 183.877 13.2761C183.901 13.2672 183.924 13.2613 183.948 13.2524C183.971 13.2465 183.998 13.2406 184.021 13.2347C184.03 13.2318 184.039 13.2318 184.048 13.2288C184.057 13.2259 184.065 13.2259 184.074 13.2229C184.098 13.22 184.092 13.22 184.063 13.2229C184.083 13.2111 184.124 13.217 184.148 13.2141C184.177 13.2111 184.21 13.2111 184.239 13.2111C184.307 13.2111 184.372 13.2141 184.439 13.2229C184.545 13.2347 184.645 13.1226 184.642 13.0193C184.636 12.9012 184.554 12.8274 184.439 12.8156C184.03 12.7743 183.583 12.8628 183.309 13.1964C183.124 13.4236 183.035 13.704 183.009 13.9933C183.003 14.0494 183 14.1055 183.003 14.1616C183.009 14.2678 183.091 14.3711 183.206 14.3652C183.309 14.3652 183.415 14.2796 183.406 14.1675Z" fill="#00B5E0"/>
<path d="M157.162 79.2358H146.433C145.062 79.2358 143.951 80.3502 143.951 81.7256V86.1178V87.6541V92.4682L146.475 90.1439H157.162C158.534 90.1439 159.645 89.0295 159.645 87.6541V81.7256C159.645 80.3502 158.534 79.2358 157.162 79.2358Z" fill="white" stroke="black" stroke-width="0.344461" stroke-miterlimit="10"/>
<path d="M149.342 84.8874C149.342 85.4842 148.859 85.9691 148.264 85.9691C147.669 85.9691 147.186 85.4842 147.186 84.8874C147.186 84.2906 147.669 83.8057 148.264 83.8057C148.859 83.8057 149.342 84.2906 149.342 84.8874Z" fill="white" stroke="black" stroke-width="0.344461" stroke-miterlimit="10"/>
<path d="M153.094 84.8864C153.094 85.4832 152.611 85.9681 152.016 85.9681C151.421 85.9681 150.938 85.4832 150.938 84.8864C150.938 84.2896 151.421 83.8047 152.016 83.8047C152.611 83.8047 153.094 84.2896 153.094 84.8864Z" fill="white" stroke="black" stroke-width="0.344461" stroke-miterlimit="10"/>
<path d="M156.852 84.8864C156.852 85.4832 156.369 85.9681 155.774 85.9681C155.179 85.9681 154.695 85.4832 154.695 84.8864C154.695 84.2896 155.179 83.8047 155.774 83.8047C156.369 83.8047 156.852 84.2896 156.852 84.8864Z" fill="white" stroke="black" stroke-width="0.344461" stroke-miterlimit="10"/>
<path d="M160.254 75.6924H149.525C148.154 75.6924 147.043 76.8067 147.043 78.1822V82.5743V84.1106V88.9247L149.567 86.6004H160.254C161.625 86.6004 162.736 85.4861 162.736 84.1106V78.1822C162.736 76.8067 161.625 75.6924 160.254 75.6924Z" fill="white" stroke="black" stroke-width="0.344461" stroke-miterlimit="10"/>
<path d="M152.436 81.3439C152.436 81.9407 151.953 82.4256 151.358 82.4256C150.763 82.4256 150.279 81.9407 150.279 81.3439C150.279 80.7471 150.763 80.2622 151.358 80.2622C151.953 80.2622 152.436 80.7471 152.436 81.3439Z" fill="white" stroke="black" stroke-width="0.344461" stroke-miterlimit="10"/>
<path d="M156.19 81.3439C156.19 81.9407 155.707 82.4256 155.112 82.4256C154.517 82.4256 154.033 81.9407 154.033 81.3439C154.033 80.7471 154.517 80.2622 155.112 80.2622C155.707 80.2622 156.19 80.7471 156.19 81.3439Z" fill="white" stroke="black" stroke-width="0.344461" stroke-miterlimit="10"/>
<path d="M159.946 81.3439C159.946 81.9407 159.463 82.4256 158.868 82.4256C158.273 82.4256 157.789 81.9407 157.789 81.3439C157.789 80.7471 158.273 80.2622 158.868 80.2622C159.463 80.2622 159.946 80.7471 159.946 81.3439Z" fill="white" stroke="black" stroke-width="0.344461" stroke-miterlimit="10"/>
<path d="M69.1166 29.8901H56.0659C54.3985 29.8901 53.0469 31.2459 53.0469 32.9183V38.2644V40.1336V45.99L56.118 43.1617H69.1197C70.787 43.1617 72.1387 41.8059 72.1387 40.1336V32.9183C72.1356 31.2459 70.7839 29.8901 69.1166 29.8901Z" fill="white" stroke="black" stroke-width="0.45424" stroke-miterlimit="10"/>
<path d="M59.6021 36.765C59.6021 37.4936 59.0137 38.0808 58.2903 38.0808C57.5639 38.0808 56.9785 37.4905 56.9785 36.765C56.9785 36.0395 57.567 35.4492 58.2903 35.4492C59.0137 35.4492 59.6021 36.0395 59.6021 36.765Z" fill="white" stroke="black" stroke-width="0.45424" stroke-miterlimit="10"/>
<path d="M64.1646 36.764C64.1646 37.4926 63.5762 38.0798 62.8528 38.0798C62.1264 38.0798 61.541 37.4896 61.541 36.764C61.541 36.0385 62.1295 35.4482 62.8528 35.4482C63.5762 35.4482 64.1646 36.0385 64.1646 36.764Z" fill="white" stroke="black" stroke-width="0.45424" stroke-miterlimit="10"/>
<path d="M68.733 36.764C68.733 37.4926 68.1445 38.0798 67.4212 38.0798C66.6948 38.0798 66.1094 37.4896 66.1094 36.764C66.1094 36.0385 66.6979 35.4482 67.4212 35.4482C68.1445 35.4482 68.733 36.0385 68.733 36.764Z" fill="white" stroke="black" stroke-width="0.45424" stroke-miterlimit="10"/>
<path d="M25.4045 106.302C24.9778 103.919 23.6363 102.358 22.1365 101.374C19.5942 99.7107 16.2206 99.7107 13.6828 101.374C12.1829 102.358 10.8414 103.919 10.4148 106.302C9.63185 110.705 13.4936 113.069 14.2194 113.956C14.2194 113.956 14.7076 114.362 14.9451 114.843C15.0023 114.962 15.0683 115.341 15.1386 115.849H17.914H20.6894C20.7642 115.341 20.8257 114.962 20.8829 114.843C21.116 114.362 21.6087 113.956 21.6087 113.956C22.3256 113.069 26.1874 110.705 25.4045 106.302Z" fill="#EEDA36" stroke="black" stroke-width="0.651854" stroke-miterlimit="10"/>
<path d="M16.7418 116.321C16.7418 116.321 16.7418 112.148 16.4384 111.552C16.1349 110.956 14.7318 108.87 14.4943 108.433C14.2568 107.992 14.745 107.484 15.1188 108.133C15.4399 108.689 16.799 110.59 17.1025 111.371C17.406 112.148 17.6655 116.533 17.6655 116.533L16.7418 116.321Z" fill="white"/>
<path d="M19.0467 116.321C19.0467 116.321 19.0467 112.148 19.3502 111.552C19.6537 110.956 21.0568 108.87 21.2943 108.433C21.5318 107.992 21.0436 107.484 20.6697 108.133C20.3486 108.689 18.9895 110.59 18.686 111.371C18.3826 112.148 18.123 116.533 18.123 116.533L19.0467 116.321Z" fill="white"/>
<path d="M21.0616 108.291C20.4986 108.556 19.5397 108.587 18.8316 108.371C18.8272 108.375 18.8184 108.379 18.814 108.384C18.229 108.816 17.4153 108.653 16.8171 108.212C16.0738 108.503 15.049 108.538 14.895 108.543L14.8906 108.146C15.3393 108.137 15.9814 108.062 16.4828 107.912C16.0694 107.462 15.9814 106.976 16.2585 106.646C16.606 106.226 17.0458 106.253 17.3229 106.465C17.6572 106.721 17.8156 107.263 17.5033 107.731C17.4329 107.837 17.3361 107.925 17.2218 108.004C17.5956 108.225 18.0399 108.322 18.3961 108.185C18.273 108.115 18.1674 108.026 18.0927 107.929C17.9739 107.775 17.8156 107.457 18.119 107.034C18.3258 106.747 18.5941 106.615 18.858 106.672C19.1131 106.725 19.311 106.95 19.3638 107.241C19.4166 107.515 19.3374 107.797 19.1483 108.048C19.7245 108.176 20.4634 108.154 20.9208 107.943L21.0616 108.291ZM18.5677 107.118C18.5193 107.153 18.4753 107.201 18.4313 107.263C18.2774 107.479 18.3346 107.598 18.3961 107.682C18.4753 107.779 18.6029 107.863 18.7612 107.934C18.9459 107.744 19.0295 107.528 18.9899 107.329C18.9635 107.193 18.8756 107.082 18.77 107.06C18.7084 107.047 18.6381 107.065 18.5677 107.118ZM16.8875 107.757C17.0194 107.687 17.1206 107.607 17.1822 107.519C17.3625 107.246 17.2745 106.937 17.0854 106.791C16.9183 106.668 16.7292 106.707 16.562 106.906C16.3949 107.104 16.5796 107.435 16.7863 107.66C16.8171 107.691 16.8523 107.726 16.8875 107.757Z" fill="white"/>
<path d="M17.8938 115.403C16.3851 115.403 15.0964 115.006 14.8809 114.887C14.8985 114.918 14.916 114.945 14.9292 114.975C15.1316 115.39 15.3823 118.853 15.9277 120.19C16.0244 120.428 16.13 120.596 16.2444 120.671C16.5566 120.874 17.2032 121.09 17.8938 121.055C18.5843 121.086 19.2309 120.874 19.5432 120.671C19.6575 120.596 19.7631 120.428 19.8598 120.19C20.4008 118.853 20.6559 115.395 20.8583 114.975C20.8715 114.945 20.8935 114.914 20.9067 114.887C20.6911 115.006 19.4024 115.403 17.8938 115.403Z" fill="white" stroke="black" stroke-width="0.651854" stroke-miterlimit="10"/>
<path d="M17.896 116.969C18.7669 116.956 19.717 116.85 20.5791 116.576C20.6362 116.166 20.689 115.796 20.733 115.513C18.9033 116.21 16.88 116.21 15.0547 115.513C15.1031 115.796 15.1515 116.166 15.2086 116.576C16.0751 116.845 17.0252 116.951 17.896 116.969Z" fill="black"/>
<path d="M17.8973 118.734C18.6758 118.721 19.5159 118.633 20.3032 118.421C20.3648 118.077 20.4176 117.72 20.4703 117.371C18.8033 117.94 16.9912 117.94 15.3242 117.371C15.377 117.72 15.4298 118.077 15.4914 118.421C16.2787 118.633 17.1188 118.721 17.8973 118.734Z" fill="black"/>
<path d="M15.6582 119.25C15.7418 119.616 15.8341 119.943 15.9353 120.19C15.9529 120.229 15.9705 120.265 15.9837 120.304C16.6215 120.432 17.2812 120.49 17.9014 120.503C18.5216 120.494 19.1769 120.432 19.8147 120.304C19.8323 120.269 19.8499 120.234 19.8675 120.19C19.9686 119.938 20.061 119.616 20.1446 119.25C18.6755 119.674 17.1185 119.674 15.6582 119.25Z" fill="black"/>
<path d="M18.0525 97.9013H18.0349C17.595 97.9013 17.2344 97.5439 17.2344 97.0983V93.3352C17.2344 92.894 17.5906 92.5322 18.0349 92.5322H18.0525C18.4923 92.5322 18.853 92.8896 18.853 93.3352V97.0983C18.8486 97.5439 18.4923 97.9013 18.0525 97.9013Z" fill="white" stroke="black" stroke-width="0.651854" stroke-miterlimit="10"/>
<path d="M23.8028 98.9429L23.7896 98.9341C23.3981 98.7267 23.253 98.237 23.4641 97.8488L25.2366 94.5312C25.4434 94.143 25.9316 93.993 26.3187 94.2047L26.3319 94.2135C26.7189 94.4209 26.8685 94.9106 26.6573 95.2988L24.8848 98.6164C24.6781 99.0091 24.1898 99.1547 23.8028 98.9429Z" fill="white" stroke="black" stroke-width="0.651854" stroke-miterlimit="10"/>
<path d="M12.2787 98.9429L12.2919 98.9341C12.6834 98.7267 12.8285 98.237 12.6174 97.8488L10.8448 94.5312C10.6381 94.143 10.1499 93.993 9.76283 94.2047L9.74964 94.2135C9.36258 94.4209 9.21304 94.9106 9.42416 95.2988L11.1967 98.6164C11.4034 99.0091 11.8873 99.1547 12.2787 98.9429Z" fill="white" stroke="black" stroke-width="0.651854" stroke-miterlimit="10"/>
<path d="M8.01698 103.358L8.01259 103.376C7.92022 103.808 7.49797 104.086 7.06693 103.998L3.39427 103.226C2.96323 103.133 2.68613 102.71 2.7741 102.278L2.7785 102.26C2.87087 101.828 3.29311 101.55 3.72415 101.638L7.39681 102.41C7.82785 102.498 8.10495 102.926 8.01698 103.358Z" fill="white" stroke="black" stroke-width="0.651854" stroke-miterlimit="10"/>
<path d="M7.81555 109.371L7.81115 109.354C7.68799 108.93 7.24376 108.683 6.81711 108.811L3.21923 109.87C2.79698 109.993 2.55067 110.439 2.67823 110.867L2.68262 110.885C2.80578 111.308 3.25002 111.555 3.67666 111.427L7.27455 110.368C7.69679 110.245 7.9387 109.799 7.81555 109.371Z" fill="white" stroke="black" stroke-width="0.651854" stroke-miterlimit="10"/>
<path d="M28.0646 103.358L28.069 103.376C28.1614 103.808 28.5836 104.086 29.0147 103.998L32.6873 103.226C33.1184 103.133 33.3955 102.71 33.3075 102.278L33.3031 102.26C33.2107 101.828 32.7885 101.55 32.3575 101.638L28.6848 102.41C28.2494 102.498 27.9723 102.926 28.0646 103.358Z" fill="white" stroke="black" stroke-width="0.651854" stroke-miterlimit="10"/>
<path d="M28.2626 109.371L28.2669 109.354C28.3901 108.93 28.8343 108.683 29.261 108.811L32.8589 109.87C33.2811 109.993 33.5274 110.439 33.3999 110.867V110.88C33.2767 111.304 32.8325 111.551 32.4058 111.423L28.808 110.364C28.3813 110.245 28.1394 109.799 28.2626 109.371Z" fill="white" stroke="black" stroke-width="0.651854" stroke-miterlimit="10"/>
</svg>
