<svg xmlns="http://www.w3.org/2000/svg" xmlns:xlink="http://www.w3.org/1999/xlink" width="541.933" height="1199.448" viewBox="0 0 541.933 1199.448"><defs><style>.a,.d,.f{fill:#fff;}.b{fill:url(#a);}.c{opacity:0.8;}.d{opacity:0.1;}.e{opacity:0.27;isolation:isolate;}.f{fill-rule:evenodd;}.g{fill:#e7e8e9;opacity:0.3;}</style><linearGradient id="a" x1="0.2" y1="0.216" x2="1" y2="1" gradientUnits="objectBoundingBox"><stop offset="0" stop-color="#10caf7"/><stop offset="1" stop-color="#00b5e0"/></linearGradient></defs><g transform="translate(46.638 273.448)"><rect class="a" width="428" height="926"/><g transform="translate(-46.638 -273.448)"><rect class="b" width="428" height="926" transform="translate(46.639 273.448)"/><g class="c" transform="translate(46.638 153.448)"><rect class="d" width="175.734" height="175.734" transform="matrix(0.5, 0.866, -0.866, 0.5, 251.406, 100.713)"/><rect class="d" width="175.734" height="175.734" transform="matrix(0.5, 0.866, -0.866, 0.5, 298.044, -92.398)"/><rect class="d" width="175.734" height="175.734" transform="matrix(0.5, 0.866, -0.866, 0.5, 360.789, 138.053)"/><rect class="d" width="175.734" height="175.734" transform="matrix(0.5, 0.866, -0.866, 0.5, 407.428, -55.058)"/><rect class="d" width="175.734" height="175.734" transform="matrix(0.5, 0.866, -0.866, 0.5, 105.552, 39.663)"/><rect class="d" width="175.734" height="175.734" transform="matrix(0.5, 0.866, -0.866, 0.5, 152.19, -153.448)"/></g></g><g transform="translate(0.793 257.594)"><g transform="translate(38.142 30.041)"><g class="e" transform="translate(0.425 -0.076)"><circle class="a" cx="121.225" cy="121.225" r="121.225" transform="translate(-3.359 174.878) rotate(-45)"/></g></g><g transform="translate(169.207 146.406)"><g transform="translate(0 0)"><path class="f" d="M70.9,247.017v32.3H0V228.531H7.5V271.8H63.4V241.891Z" transform="translate(0 -192.33)"/><path class="f" d="M0,139.891H29.89V147.4H7.5v9.783H0v-17.3Z" transform="translate(0 -122.59)"/><path class="f" d="M103.71,212.221q5.126-13.656.277-29.033,11.62-7.7,13.214-18.813c12.168,2.547,20.468,8.222,27.267,18.64q-9.754,5.542-12.679,19.189-16.063,1.074-26.885,10.825l16.33-23.963a2.613,2.613,0,1,0-1.188-.814Z" transform="translate(-80.039 -142.077)"/><path class="f" d="M181.195,68.651,145.9,62.168,155.326,76.9l-4.378,6.427a44.052,44.052,0,0,1,27.624,18.886l4.076-5.989A31.319,31.319,0,0,0,176,87.42q6.512,3.488,8.861,8.753l8.621,1.72-4.378,6.422-1.521-1.043-.887,1.3,1.521,1.042-2.561,3.763-1.97,1.388-3.43,2.424,2.426,1.659,2.432,1.66,1-4.083.579-2.337,2.562-3.769,1.527,1.043.886-1.3-1.527-1.042,4.625-6.779-.191-.13,5.511,1.1Z" transform="translate(-112.603 -62.168)"/></g><g transform="translate(0 95.087)"><path class="a" d="M423.43,215.612v1.05l-.525.071a5.234,5.234,0,0,0-2.262.567,1.763,1.763,0,0,0-.376,1.319v.511l-.028,4.752.014,5.433.014,2.766a5.643,5.643,0,0,0,.121,1.532.862.862,0,0,0,.419.468,8.026,8.026,0,0,0,2.1.525c.113.02.288.048.525.085v1.05q-2.909-.155-5.121-.156-2.1,0-5.561.156v-1.05q2.2-.411,2.414-.5a1.052,1.052,0,0,0,.495-.369,2.856,2.856,0,0,0,.226-1.333q.028-2.353.028-8.015l-.043-5.163v-.426a2.209,2.209,0,0,0-.326-1.461,5.356,5.356,0,0,0-2.2-.638q-.213-.043-.61-.128v-1.05q3.651.157,5.468.156Q420.149,215.768,423.43,215.612Z" transform="translate(-412.734 -215.186)"/><path class="a" d="M536.925,216.662v-1.05q1.947.157,3.624.156t3.979-.156q1.728,2.328,10.4,12.866l-.057-7.717a16.551,16.551,0,0,0-.22-3.142,1.063,1.063,0,0,0-.489-.5,12.056,12.056,0,0,0-2.4-.461v-1.05q2.283.157,3.986.156,1.645,0,4.2-.156v1.05c-.294.057-.511.1-.653.114a4.807,4.807,0,0,0-2,.56,1.92,1.92,0,0,0-.383,1.255q-.143,1.987-.142,8.171,0,3.973.156,9.078-.666.2-1.319.468l-5.376-6.789-8.2-9.986.057,6.748.113,6.563a2.939,2.939,0,0,0,.142.931.766.766,0,0,0,.284.306,9.208,9.208,0,0,0,2.014.5c.132.02.331.057.6.114v1.05q-2.445-.155-3.922-.156-1.264,0-4.291.156v-1.05l.667-.128a5.8,5.8,0,0,0,1.943-.5.851.851,0,0,0,.284-.447q.085-.289.184-4.22.155-5.687.156-9.759a6.149,6.149,0,0,0-.149-1.745,1.143,1.143,0,0,0-.532-.6,8.364,8.364,0,0,0-1.943-.5C537.474,216.775,537.237,216.728,536.925,216.662Z" transform="translate(-523.622 -215.186)"/><path class="a" d="M771.707,216.662v-1.05q4.709.157,6.936.156,5.873,0,10.256-.156.085,3.149.383,5.589h-1.163l-.142-.44a11.189,11.189,0,0,0-1.092-2.667,1.2,1.2,0,0,0-.61-.433,5.9,5.9,0,0,0-1.575-.135h-5.433v6.851h2.468a6.572,6.572,0,0,0,1.794-.142,1.14,1.14,0,0,0,.574-.5,9.537,9.537,0,0,0,.724-2.326h1.177q-.17,2.157-.17,4.1,0,1.775.17,3.532h-1.177a19.946,19.946,0,0,0-.652-2.5.9.9,0,0,0-.454-.426,6.75,6.75,0,0,0-1.9-.156h-2.553v6.355a4.432,4.432,0,0,0,.135,1.433.81.81,0,0,0,.461.411,10.28,10.28,0,0,0,2.3.44c.152.01.373.038.667.085v1.05q-3.5-.155-5.887-.156t-5.234.156v-1.05a10.223,10.223,0,0,0,2.759-.681,1.293,1.293,0,0,0,.376-.936q.034-.511.057-7.759v-4.993a15.318,15.318,0,0,0-.106-2.5.871.871,0,0,0-.362-.539,9.544,9.544,0,0,0-2.156-.525C772.151,216.742,771.962,216.71,771.707,216.662Z" transform="translate(-733.256 -215.186)"/><path class="a" d="M965.725,217.824h-1.418a6.844,6.844,0,0,0-1.419-3.641,3.543,3.543,0,0,0-2.582-.926,3.217,3.217,0,0,0-2.277.759,2.526,2.526,0,0,0-.816,1.935,2.8,2.8,0,0,0,.752,1.9,11.618,11.618,0,0,0,3.575,2.141,10.516,10.516,0,0,1,3.943,2.692,5.573,5.573,0,0,1,1.121,3.545,6.128,6.128,0,0,1-1.922,4.471q-1.921,1.922-6.206,1.921a17.55,17.55,0,0,1-2.894-.227,16.548,16.548,0,0,1-2.567-.652q.24-2.5.241-4.922v-.95h1.39a8.959,8.959,0,0,0,1.333,3.773,3.611,3.611,0,0,0,2.95,1.291,3.288,3.288,0,0,0,2.411-.894,3.063,3.063,0,0,0,.908-2.284,3.172,3.172,0,0,0-.376-1.56,3.917,3.917,0,0,0-1.121-1.234,17.174,17.174,0,0,0-2.7-1.461,11.251,11.251,0,0,1-4.029-2.738A4.844,4.844,0,0,1,953,217.682a5.544,5.544,0,0,1,1.929-4.326,8.109,8.109,0,0,1,5.56-1.716,16.956,16.956,0,0,1,5.234.922q-.085,2.228-.085,3.092Q965.64,216.662,965.725,217.824Z" transform="translate(-895.131 -211.639)"/></g></g></g><rect class="g" width="155" height="7" rx="3.5" transform="translate(137 910)"/></g></svg>